<svg width="67" height="67" viewBox="0 0 67 67" fill="none" xmlns="http://www.w3.org/2000/svg">
<path d="M17 43.1329V65H62V9" stroke="#8B63FF" stroke-width="3" stroke-linecap="round" stroke-linejoin="round"/>
<path fill-rule="evenodd" clip-rule="evenodd" d="M16.5 43C17.8807 43 19 41.6569 19 40C19 38.3431 17.8807 37 16.5 37C15.1193 37 14 38.3431 14 40C14 41.6569 15.1193 43 16.5 43Z" stroke="#8B63FF" stroke-width="3"/>
<path fill-rule="evenodd" clip-rule="evenodd" d="M62.5 9C63.8807 9 65 7.88071 65 6.5C65 5.11929 63.8807 4 62.5 4C61.1193 4 60 5.11929 60 6.5C60 7.88071 61.1193 9 62.5 9Z" stroke="#8B63FF" stroke-width="3"/>
<path d="M27.64 27.0048H51.4381V51.7048H27.64V27.0048Z" fill="url(#paint0_linear_4_663)"/>
<path fill-rule="evenodd" clip-rule="evenodd" d="M42.3969 15.3046H44.6832C44.6832 15.3046 44.6832 15.3045 44.6832 15.3045H55.4392V56.9045H23.6392V15.3045H34.3949C34.3949 15.3045 34.3949 15.3046 34.3949 15.3046H36.6812C36.6812 13.5097 37.9607 12.0546 39.539 12.0546C41.1174 12.0546 42.3969 13.5097 42.3969 15.3046ZM34.9297 12.7045C35.7714 10.7783 37.5193 9.45459 39.539 9.45459C41.5588 9.45459 43.3067 10.7783 44.1484 12.7045H57.7255V59.5045H21.3529V12.7045H34.9297ZM29.9264 15.3047H32.2127V19.8547H46.8657V15.3047H49.1519V22.4547H29.9264V15.3047Z" fill="#AA00FA"/>
<path fill-rule="evenodd" clip-rule="evenodd" d="M43.8559 32.2638L45.7744 34.4456L38.1003 43.1728L38.1002 43.1726L36.1818 40.991L33.3038 37.7181L35.2224 35.5363L38.1003 38.8092L43.8559 32.2638Z" fill="#FFB800"/>
<rect opacity="0.1" x="12" y="24.8182" width="5.19608" height="5.90909" fill="#FFB800"/>
<rect opacity="0.1" x="33.8235" width="5.19608" height="5.90909" fill="#FFB800"/>
<rect opacity="0.4" x="12" y="16.5454" width="5.19608" height="5.90909" fill="#FFB800"/>
<rect opacity="0.4" x="26.5491" width="5.19608" height="5.90909" fill="#FFB800"/>
<rect opacity="0.7" x="12" y="8.27271" width="5.19608" height="5.90909" fill="#FFB800"/>
<rect opacity="0.7" x="19.2745" width="5.19608" height="5.90909" fill="#FFB800"/>
<rect x="12" width="5.19608" height="5.90909" fill="#FFB800"/>
<defs>
<linearGradient id="paint0_linear_4_663" x1="39.539" y1="27.0048" x2="39.539" y2="51.7048" gradientUnits="userSpaceOnUse">
<stop stop-color="#AA00FA"/>
<stop offset="1" stop-color="#AA00FA" stop-opacity="0"/>
</linearGradient>
</defs>
</svg>
