<svg width="470" height="410" viewBox="0 0 470 410" fill="none" xmlns="http://www.w3.org/2000/svg">
<rect width="470" height="410" rx="8" fill="#0B1739"/>
<path d="M21.9996 22.9458C18.4782 22.9458 15.6216 20.5083 15.6216 17.5007C15.6216 14.4917 18.4782 12.0542 21.9996 12.0542C25.5225 12.0542 28.3792 14.4917 28.3792 17.5007C28.3792 20.5083 25.5225 22.9458 21.9996 22.9458ZM32.1525 18.9906L31.4044 18.7584C30.9886 18.629 30.7319 18.2806 30.7551 17.9032C30.7644 17.7699 30.769 17.6353 30.769 17.5007C30.769 17.3713 30.7644 17.2433 30.7567 17.1153L32.2654 16.7695C32.7956 16.6494 33.1079 16.1849 32.9657 15.7349L32.5313 14.3478C32.3906 13.8978 31.8464 13.6286 31.3162 13.75L30.5464 13.9268C30.1213 14.0232 29.6777 13.8662 29.4458 13.5468L29.3438 13.4122C29.1026 13.0968 29.1227 12.6863 29.4056 12.3973L29.9188 11.8747C30.2712 11.517 30.2172 10.9839 29.7967 10.6843L28.5091 9.76181C28.0902 9.46091 27.4641 9.5071 27.1132 9.86607L26.6015 10.3861C26.3201 10.6724 25.8534 10.7648 25.453 10.6183C25.1546 10.5088 24.8501 10.4138 24.5363 10.3333C24.1174 10.225 23.8314 9.89908 23.8314 9.52692V8.84593C23.8314 8.37875 23.3878 8 22.8406 8H21.1603C20.613 8 20.1694 8.37875 20.1694 8.84593V9.52428C20.1694 9.90172 19.8741 10.2264 19.4521 10.3359L19.2712 10.3834C18.8523 10.5009 18.3948 10.3781 18.1412 10.0693L17.6853 9.51371C17.3715 9.13231 16.7547 9.03861 16.3064 9.30651L14.9291 10.13C14.4808 10.3979 14.3726 10.9258 14.6864 11.3072L15.144 11.8655C15.3975 12.1743 15.3743 12.5847 15.1022 12.8816L14.9878 13.007C14.7235 13.3079 14.2643 13.4333 13.8516 13.3039L13.1004 13.0717C12.5872 12.9107 12.0183 13.1377 11.8313 13.5771L11.2562 14.9246C11.0691 15.364 11.3351 15.8497 11.8498 16.0094L12.5965 16.2416C13.0138 16.371 13.2704 16.7194 13.2442 17.0968C13.2364 17.2301 13.2318 17.3647 13.2318 17.5007C13.2318 17.6287 13.2348 17.7567 13.2426 17.8847L11.7354 18.2305C11.2067 18.3506 10.8929 18.8151 11.0336 19.2651L11.4696 20.6521C11.6102 21.1035 12.1543 21.3714 12.683 21.25L13.4529 21.0745C13.878 20.9768 14.3216 21.1338 14.5565 21.4532L14.6555 21.5878C14.8966 21.9032 14.8781 22.3137 14.5937 22.6027L14.082 23.124C13.7311 23.4829 13.7852 24.0161 14.2041 24.317L15.4918 25.2382C15.9107 25.5391 16.5352 25.4929 16.8876 25.1339L17.4008 24.6126C17.6806 24.3276 18.1459 24.2352 18.5479 24.3817C18.8447 24.4912 19.1507 24.5862 19.4645 24.6667C19.8818 24.775 20.1694 25.1009 20.1694 25.4744V26.1541C20.1694 26.6213 20.613 27 21.1603 27H22.8406C23.3878 27 23.8314 26.6213 23.8314 26.1541V25.4757C23.8314 25.0983 24.1251 24.7736 24.5487 24.6641L24.728 24.6166C25.1469 24.4991 25.606 24.6219 25.858 24.9307L26.314 25.485C26.6278 25.8677 27.2461 25.9614 27.6944 25.6935L29.0702 24.8713C29.5185 24.6021 29.6282 24.0742 29.3144 23.6915L28.8569 23.1345C28.6049 22.8257 28.625 22.4153 28.8986 22.1197L29.0115 21.9917C29.2773 21.6921 29.7348 21.568 30.1507 21.6961L30.8989 21.9283C31.4136 22.0893 31.9825 21.8623 32.1695 21.4229L32.743 20.0754C32.93 19.636 32.6673 19.1503 32.1525 18.9906Z" fill="#68F0EB"/>
<path d="M27.4396 17.1539L107.219 15.5644L121.798 37.2636L120.479 37.9368L106.354 16.9154L27.4732 18.4871L27.4396 17.1539Z" fill="#68F0EB"/>
<path d="M25.6046 20.5556C27.3378 21.4473 29.5708 20.9442 30.5926 19.4342C31.6145 17.9241 31.0397 15.9765 29.3065 15.0848C27.5746 14.1939 25.3415 14.6969 24.3197 16.207C23.2978 17.7171 23.8727 19.6647 25.6046 20.5556Z" fill="#68F0EB"/>
<path d="M464.943 41.5628L121.509 38.4621L121.53 36.3658L464.963 39.4665" fill="#68F0EB"/>
</svg>
