<svg width="457" height="410" viewBox="0 0 457 410" fill="none" xmlns="http://www.w3.org/2000/svg">
<rect width="457" height="410" rx="8" fill="#0B1739"/>
<path d="M440.488 32.1C437.45 32.1 434.986 29.6374 434.986 26.5987C434.986 23.5587 437.45 21.096 440.488 21.096C443.526 21.096 445.99 23.5587 445.99 26.5987C445.99 29.6374 443.526 32.1 440.488 32.1ZM449.245 28.1041L448.6 27.8694C448.241 27.7387 448.02 27.3867 448.04 27.0054C448.048 26.8707 448.052 26.7347 448.052 26.5987C448.052 26.468 448.048 26.3387 448.041 26.2094L449.342 25.86C449.8 25.7387 450.069 25.2694 449.946 24.8147L449.572 23.4134C449.45 22.9587 448.981 22.6867 448.524 22.8094L447.86 22.988C447.493 23.0854 447.11 22.9267 446.91 22.6041L446.822 22.4681C446.614 22.1494 446.632 21.7347 446.876 21.4427L447.318 20.9147C447.622 20.5534 447.576 20.0147 447.213 19.712L446.102 18.78C445.741 18.476 445.201 18.5227 444.898 18.8854L444.457 19.4107C444.214 19.7001 443.812 19.7934 443.466 19.6454C443.209 19.5347 442.946 19.4387 442.676 19.3574C442.314 19.248 442.068 18.9187 442.068 18.5427V17.8547C442.068 17.3827 441.685 17 441.213 17H439.764C439.292 17 438.909 17.3827 438.909 17.8547V18.5401C438.909 18.9214 438.654 19.2494 438.29 19.36L438.134 19.4081C437.773 19.5267 437.378 19.4027 437.16 19.0907L436.766 18.5294C436.496 18.144 435.964 18.0494 435.577 18.32L434.389 19.152C434.002 19.4227 433.909 19.9561 434.18 20.3414L434.574 20.9054C434.793 21.2174 434.773 21.632 434.538 21.932L434.44 22.0587C434.212 22.3627 433.816 22.4894 433.46 22.3587L432.812 22.124C432.369 21.9614 431.878 22.1907 431.717 22.6347L431.221 23.996C431.06 24.44 431.289 24.9307 431.733 25.092L432.377 25.3267C432.737 25.4574 432.958 25.8094 432.936 26.1907C432.929 26.3254 432.925 26.4614 432.925 26.5987C432.925 26.728 432.928 26.8574 432.934 26.9867L431.634 27.3361C431.178 27.4574 430.908 27.9267 431.029 28.3814L431.405 29.7827C431.526 30.2387 431.996 30.5094 432.452 30.3867L433.116 30.2094C433.482 30.1107 433.865 30.2694 434.068 30.592L434.153 30.728C434.361 31.0467 434.345 31.4614 434.1 31.7534L433.658 32.28C433.356 32.6427 433.402 33.1814 433.764 33.4854L434.874 34.416C435.236 34.72 435.774 34.6734 436.078 34.3107L436.521 33.784C436.762 33.496 437.164 33.4027 437.51 33.5507C437.766 33.6614 438.03 33.7574 438.301 33.8387C438.661 33.9481 438.909 34.2774 438.909 34.6547V35.3414C438.909 35.8134 439.292 36.196 439.764 36.196H441.213C441.685 36.196 442.068 35.8134 442.068 35.3414V34.656C442.068 34.2747 442.321 33.9467 442.686 33.8361L442.841 33.788C443.202 33.6694 443.598 33.7934 443.816 34.1054L444.209 34.6654C444.48 35.052 445.013 35.1467 445.4 34.8761L446.586 34.0454C446.973 33.7734 447.068 33.24 446.797 32.8534L446.402 32.2907C446.185 31.9787 446.202 31.564 446.438 31.2654L446.536 31.1361C446.765 30.8334 447.16 30.7081 447.518 30.8374L448.164 31.0721C448.608 31.2347 449.098 31.0054 449.26 30.5614L449.754 29.2C449.916 28.756 449.689 28.2654 449.245 28.1041Z" fill="#11EBF6"/>
<path d="M176.28 23.3H191.8V24.54H176.28V23.3ZM175.14 13.5H184.36V14.6H175.14V13.5ZM184.06 26.08H190.48V27.24H184.06V26.08ZM174.94 28.9H193.12V30.16H174.94V28.9ZM183.24 23.76H184.72V29.5H183.24V23.76ZM179.08 12.2H180.42V22.76H179.08V12.2ZM178.24 25.44H179.68V29.58H178.24V25.44ZM176.96 16.62V18.28H182.6V16.62H176.96ZM175.72 15.62H183.88V19.28H175.72V15.62ZM180.42 19.22C180.593 19.3 180.847 19.4267 181.18 19.6C181.513 19.76 181.867 19.9333 182.24 20.12C182.627 20.3067 182.98 20.4867 183.3 20.66C183.633 20.82 183.873 20.9467 184.02 21.04L183.28 22.04C183.093 21.9067 182.84 21.74 182.52 21.54C182.213 21.34 181.88 21.1333 181.52 20.92C181.16 20.7067 180.813 20.5133 180.48 20.34C180.147 20.1533 179.873 20.0067 179.66 19.9L180.42 19.22ZM186.84 12.2L188.2 12.5C187.867 13.66 187.4 14.7533 186.8 15.78C186.213 16.7933 185.553 17.6467 184.82 18.34C184.767 18.2467 184.673 18.1333 184.54 18C184.42 17.8667 184.293 17.74 184.16 17.62C184.027 17.4867 183.907 17.38 183.8 17.3C184.507 16.7 185.12 15.9533 185.64 15.06C186.16 14.1667 186.56 13.2133 186.84 12.2ZM186.48 14.44H193.04V15.66H185.86L186.48 14.44ZM190.48 14.98L191.88 15.14C191.387 17.1667 190.513 18.7867 189.26 20C188.02 21.2 186.467 22.14 184.6 22.82C184.547 22.7133 184.467 22.5933 184.36 22.46C184.267 22.3267 184.16 22.1867 184.04 22.04C183.92 21.8933 183.807 21.7867 183.7 21.72C185.5 21.1733 186.973 20.36 188.12 19.28C189.28 18.2 190.067 16.7667 190.48 14.98ZM186.64 15.16C186.933 16 187.367 16.8533 187.94 17.72C188.513 18.5733 189.247 19.3533 190.14 20.06C191.047 20.7667 192.127 21.3133 193.38 21.7C193.233 21.8333 193.073 22.02 192.9 22.26C192.74 22.5 192.613 22.7067 192.52 22.88C191.267 22.4133 190.18 21.8 189.26 21.04C188.353 20.2667 187.6 19.4267 187 18.52C186.413 17.6 185.967 16.7067 185.66 15.84L186.64 15.16ZM178.96 18.76L179.94 19.2C179.607 19.64 179.2 20.0867 178.72 20.54C178.24 20.9933 177.733 21.42 177.2 21.82C176.667 22.2067 176.16 22.52 175.68 22.76C175.587 22.6133 175.453 22.4467 175.28 22.26C175.107 22.0733 174.947 21.92 174.8 21.8C175.28 21.6 175.78 21.3333 176.3 21C176.82 20.6667 177.313 20.3067 177.78 19.92C178.26 19.5333 178.653 19.1467 178.96 18.76ZM199.02 12.28L200.42 12.68C200.047 13.8133 199.6 14.9333 199.08 16.04C198.56 17.1333 197.993 18.1667 197.38 19.14C196.78 20.1133 196.147 20.98 195.48 21.74C195.44 21.62 195.367 21.4667 195.26 21.28C195.153 21.0933 195.04 20.9067 194.92 20.72C194.813 20.52 194.707 20.3667 194.6 20.26C195.2 19.6067 195.773 18.8533 196.32 18C196.867 17.1333 197.367 16.2133 197.82 15.24C198.287 14.2667 198.687 13.28 199.02 12.28ZM197.2 17.42L198.6 16L198.64 16.02V30.56H197.2V17.42ZM205.62 12.26H207.08V30.48H205.62V12.26ZM199.96 16.24H213.08V17.68H199.96V16.24ZM202.32 25.5H210.3V26.88H202.32V25.5ZM207.8 16.98C208.187 18.1667 208.673 19.3467 209.26 20.52C209.847 21.68 210.5 22.7533 211.22 23.74C211.94 24.7133 212.687 25.5133 213.46 26.14C213.287 26.2733 213.087 26.4533 212.86 26.68C212.647 26.9067 212.467 27.12 212.32 27.32C211.547 26.6 210.8 25.7133 210.08 24.66C209.373 23.5933 208.727 22.4333 208.14 21.18C207.553 19.9133 207.06 18.6267 206.66 17.32L207.8 16.98ZM204.98 16.9L206.1 17.22C205.687 18.5667 205.173 19.88 204.56 21.16C203.96 22.4267 203.293 23.6 202.56 24.68C201.827 25.7467 201.06 26.6467 200.26 27.38C200.18 27.26 200.073 27.1267 199.94 26.98C199.82 26.8333 199.693 26.6933 199.56 26.56C199.427 26.4267 199.3 26.32 199.18 26.24C199.967 25.6133 200.727 24.8 201.46 23.8C202.193 22.8 202.867 21.7067 203.48 20.52C204.093 19.32 204.593 18.1133 204.98 16.9ZM227.18 12.34H228.56V28.24H227.18V12.34ZM222.88 16.64H233.38V17.8H222.88V16.64ZM223.32 24.78H232.98V25.94H223.32V24.78ZM223.92 22.04H232.42V23.22H223.92V22.04ZM219.4 13.86H222.3V15.1H219.4V13.86ZM220.14 19.46H222.7V20.64H220.14V19.46ZM221.96 13.86H222.16L222.38 13.78L223.34 14.06C223.073 14.7533 222.753 15.5333 222.38 16.4C222.007 17.2667 221.62 18.1533 221.22 19.06C220.833 19.9533 220.453 20.7933 220.08 21.58L218.82 21.26C219.1 20.6867 219.387 20.0667 219.68 19.4C219.987 18.7333 220.28 18.0667 220.56 17.4C220.853 16.7333 221.12 16.1133 221.36 15.54C221.6 14.9533 221.8 14.4533 221.96 14.04V13.86ZM222.32 19.46H222.56L222.8 19.42L223.62 19.58C223.38 22.3533 222.9 24.6267 222.18 26.4C221.46 28.1733 220.48 29.5467 219.24 30.52C219.173 30.4133 219.087 30.2933 218.98 30.16C218.887 30.0267 218.787 29.8933 218.68 29.76C218.573 29.6267 218.467 29.52 218.36 29.44C219.08 28.9067 219.713 28.1867 220.26 27.28C220.807 26.36 221.253 25.2667 221.6 24C221.947 22.7333 222.187 21.3067 222.32 19.72V19.46ZM220.24 22.26C220.507 23.6067 220.86 24.7133 221.3 25.58C221.753 26.4467 222.293 27.12 222.92 27.6C223.56 28.0667 224.287 28.4 225.1 28.6C225.927 28.7867 226.847 28.88 227.86 28.88C227.993 28.88 228.24 28.88 228.6 28.88C228.96 28.88 229.373 28.88 229.84 28.88C230.32 28.88 230.8 28.88 231.28 28.88C231.773 28.8667 232.213 28.86 232.6 28.86C232.987 28.86 233.26 28.8533 233.42 28.84C233.353 28.96 233.28 29.1 233.2 29.26C233.133 29.4333 233.073 29.6067 233.02 29.78C232.967 29.9533 232.927 30.1 232.9 30.22H231.92H227.82C226.62 30.22 225.547 30.1067 224.6 29.88C223.667 29.6667 222.847 29.2867 222.14 28.74C221.433 28.18 220.827 27.4067 220.32 26.42C219.813 25.4333 219.4 24.1667 219.08 22.62L220.24 22.26ZM224.24 13.94H232.16V20.52H224.24V19.36H230.86V15.1H224.24V13.94ZM218.34 12.3L219.7 12.68C219.367 13.7867 218.96 14.88 218.48 15.96C218.013 17.04 217.5 18.06 216.94 19.02C216.38 19.9667 215.787 20.8133 215.16 21.56C215.12 21.44 215.053 21.2867 214.96 21.1C214.867 20.9133 214.773 20.72 214.68 20.52C214.587 20.32 214.5 20.16 214.42 20.04C215.247 19.0933 216 17.94 216.68 16.58C217.36 15.2067 217.913 13.78 218.34 12.3ZM216.94 17.36L218.26 16.04L218.28 16.08V30.56H216.94V17.36ZM238.3 19.54H253.2V20.68H238.3V19.54ZM239.7 16.96H251.22V23.34H239.54V22.24H249.8V18.06H239.7V16.96ZM244.4 15.52H245.84V28.88C245.84 29.3467 245.773 29.6867 245.64 29.9C245.52 30.1267 245.3 30.2933 244.98 30.4C244.66 30.5067 244.227 30.5667 243.68 30.58C243.133 30.6067 242.447 30.62 241.62 30.62C241.58 30.4467 241.513 30.2267 241.42 29.96C241.34 29.7067 241.24 29.4867 241.12 29.3C241.547 29.3133 241.947 29.32 242.32 29.32C242.707 29.3333 243.04 29.3333 243.32 29.32C243.613 29.32 243.82 29.32 243.94 29.32C244.113 29.32 244.233 29.2867 244.3 29.22C244.367 29.1533 244.4 29.04 244.4 28.88V15.52ZM238.8 24.4L239.66 23.6C240.007 23.7867 240.367 24.0067 240.74 24.26C241.113 24.5 241.467 24.74 241.8 24.98C242.147 25.22 242.427 25.4467 242.64 25.66L241.72 26.56C241.52 26.3467 241.253 26.1133 240.92 25.86C240.587 25.6067 240.233 25.3533 239.86 25.1C239.487 24.8333 239.133 24.6 238.8 24.4ZM250.98 23.68L252.1 24.58C251.487 25.02 250.82 25.46 250.1 25.9C249.38 26.3267 248.713 26.6933 248.1 27L247.24 26.22C247.64 26.02 248.067 25.7733 248.52 25.48C248.987 25.1733 249.433 24.8667 249.86 24.56C250.3 24.24 250.673 23.9467 250.98 23.68ZM246.18 22.92C246.7 24.44 247.527 25.7467 248.66 26.84C249.793 27.9333 251.173 28.7133 252.8 29.18C252.64 29.3133 252.467 29.5 252.28 29.74C252.107 29.98 251.973 30.2 251.88 30.4C250.2 29.8133 248.78 28.9067 247.62 27.68C246.473 26.44 245.607 24.9533 245.02 23.22L246.18 22.92ZM237.74 28.6C238.42 28.3733 239.24 28.0867 240.2 27.74C241.173 27.38 242.16 27.0133 243.16 26.64L243.42 27.76C242.553 28.12 241.687 28.48 240.82 28.84C239.967 29.2 239.173 29.52 238.44 29.8L237.74 28.6ZM243.82 12.2H245.36V14.76H243.82V12.2ZM237.08 14.04H252.98V15.38H237.08V14.04ZM236.36 14.04H237.8V19.96C237.8 20.7467 237.773 21.6 237.72 22.52C237.68 23.44 237.593 24.3867 237.46 25.36C237.327 26.32 237.127 27.26 236.86 28.18C236.607 29.0867 236.273 29.92 235.86 30.68C235.767 30.5867 235.647 30.4867 235.5 30.38C235.353 30.2733 235.2 30.1733 235.04 30.08C234.88 29.9867 234.74 29.9133 234.62 29.86C235.033 29.14 235.353 28.36 235.58 27.52C235.807 26.68 235.973 25.82 236.08 24.94C236.2 24.0467 236.273 23.18 236.3 22.34C236.34 21.4867 236.36 20.6933 236.36 19.96V14.04ZM261.12 18.1H273.02V19.58H261.12V18.1ZM267.32 18.74C267.613 20.3267 268.027 21.8067 268.56 23.18C269.107 24.5533 269.78 25.7667 270.58 26.82C271.393 27.8733 272.353 28.7067 273.46 29.32C273.34 29.4133 273.207 29.5333 273.06 29.68C272.927 29.8267 272.793 29.9733 272.66 30.12C272.54 30.28 272.44 30.4267 272.36 30.56C271.227 29.8533 270.247 28.9333 269.42 27.8C268.607 26.6533 267.927 25.34 267.38 23.86C266.833 22.3667 266.393 20.7533 266.06 19.02L267.32 18.74ZM268.82 13.52L269.96 12.88C270.253 13.2267 270.56 13.6133 270.88 14.04C271.2 14.4533 271.493 14.86 271.76 15.26C272.04 15.66 272.26 16.0133 272.42 16.32L271.2 17.08C271.04 16.7733 270.827 16.4133 270.56 16C270.307 15.5867 270.027 15.16 269.72 14.72C269.413 14.28 269.113 13.88 268.82 13.52ZM265.78 12.24H267.26V16.9C267.26 17.98 267.2 19.1067 267.08 20.28C266.96 21.4533 266.713 22.64 266.34 23.84C265.967 25.0267 265.413 26.1933 264.68 27.34C263.947 28.4733 262.973 29.5467 261.76 30.56C261.613 30.4133 261.42 30.2467 261.18 30.06C260.953 29.8867 260.74 29.7333 260.54 29.6C261.727 28.6267 262.667 27.6 263.36 26.52C264.067 25.44 264.593 24.3467 264.94 23.24C265.287 22.12 265.513 21.02 265.62 19.94C265.727 18.86 265.78 17.8467 265.78 16.9V12.24ZM258.94 12.18H260.42V30.56H258.94V12.18ZM254.98 15.52L256.12 14.82C256.453 15.1933 256.787 15.6 257.12 16.04C257.453 16.4667 257.767 16.8933 258.06 17.32C258.353 17.7333 258.58 18.1067 258.74 18.44L257.5 19.28C257.353 18.9333 257.14 18.5467 256.86 18.12C256.58 17.68 256.273 17.2333 255.94 16.78C255.62 16.3267 255.3 15.9067 254.98 15.52ZM254.64 25.12C255.213 24.6667 255.907 24.08 256.72 23.36C257.547 22.64 258.373 21.8933 259.2 21.12L259.82 22.34C259.1 23.0333 258.36 23.74 257.6 24.46C256.853 25.1667 256.16 25.8133 255.52 26.4L254.64 25.12ZM287.52 21.08H288.96V28.24C288.96 28.5333 289 28.7267 289.08 28.82C289.173 28.9 289.353 28.94 289.62 28.94C289.673 28.94 289.773 28.94 289.92 28.94C290.08 28.94 290.253 28.94 290.44 28.94C290.627 28.94 290.8 28.94 290.96 28.94C291.12 28.94 291.24 28.94 291.32 28.94C291.507 28.94 291.647 28.8667 291.74 28.72C291.833 28.5733 291.9 28.28 291.94 27.84C291.98 27.4 292.007 26.7333 292.02 25.84C292.127 25.92 292.26 26 292.42 26.08C292.58 26.16 292.747 26.2333 292.92 26.3C293.093 26.3533 293.24 26.4 293.36 26.44C293.32 27.4533 293.24 28.24 293.12 28.8C293 29.36 292.807 29.7467 292.54 29.96C292.287 30.1867 291.933 30.3 291.48 30.3C291.387 30.3 291.247 30.3 291.06 30.3C290.873 30.3 290.667 30.3 290.44 30.3C290.213 30.3 290.007 30.3 289.82 30.3C289.633 30.3 289.5 30.3 289.42 30.3C288.913 30.3 288.52 30.24 288.24 30.12C287.973 30 287.787 29.7867 287.68 29.48C287.573 29.1867 287.52 28.78 287.52 28.26V21.08ZM275.42 14.32L276.46 13.34C276.887 13.66 277.32 14.02 277.76 14.42C278.2 14.82 278.613 15.22 279 15.62C279.387 16.0067 279.693 16.36 279.92 16.68L278.8 17.8C278.587 17.4667 278.293 17.0933 277.92 16.68C277.56 16.2667 277.16 15.8533 276.72 15.44C276.28 15.0267 275.847 14.6533 275.42 14.32ZM274.8 27.22C275.173 26.7 275.593 26.08 276.06 25.36C276.527 24.64 276.993 23.8733 277.46 23.06C277.94 22.2467 278.38 21.46 278.78 20.7L279.8 21.72C279.44 22.44 279.04 23.1867 278.6 23.96C278.173 24.7333 277.733 25.4933 277.28 26.24C276.827 26.9867 276.4 27.6667 276 28.28L274.8 27.22ZM282.78 14.58V20H290.42V14.58H282.78ZM281.34 13.14H291.94V21.44H281.34V13.14ZM283.66 21H285.18C285.113 22.2 285 23.3 284.84 24.3C284.68 25.2867 284.413 26.18 284.04 26.98C283.667 27.7667 283.14 28.46 282.46 29.06C281.78 29.66 280.893 30.1733 279.8 30.6C279.707 30.4133 279.567 30.2 279.38 29.96C279.207 29.7333 279.033 29.5533 278.86 29.42C279.873 29.06 280.687 28.62 281.3 28.1C281.913 27.58 282.38 26.9733 282.7 26.28C283.02 25.5733 283.247 24.7867 283.38 23.92C283.513 23.04 283.607 22.0667 283.66 21Z" fill="#11EBF6"/>
<line x1="37" y1="38.5" x2="431" y2="38.5" stroke="#11EBF6"/>
<path d="M17.4876 31.1C14.4503 31.1 11.9863 28.6374 11.9863 25.5987C11.9863 22.5587 14.4503 20.096 17.4876 20.096C20.5263 20.096 22.9903 22.5587 22.9903 25.5987C22.9903 28.6374 20.5263 31.1 17.4876 31.1ZM26.245 27.1041L25.5997 26.8694C25.241 26.7387 25.0197 26.3867 25.0397 26.0054C25.0477 25.8707 25.0516 25.7347 25.0516 25.5987C25.0516 25.468 25.0477 25.3387 25.041 25.2094L26.3423 24.86C26.7997 24.7387 27.069 24.2694 26.9464 23.8147L26.5717 22.4134C26.4504 21.9587 25.981 21.6867 25.5236 21.8094L24.8596 21.988C24.493 22.0854 24.1104 21.9267 23.9104 21.6041L23.8223 21.4681C23.6143 21.1494 23.6317 20.7347 23.8757 20.4427L24.3183 19.9147C24.6223 19.5534 24.5757 19.0147 24.213 18.712L23.1024 17.78C22.741 17.476 22.201 17.5227 21.8983 17.8854L21.457 18.4107C21.2143 18.7001 20.8117 18.7934 20.4664 18.6454C20.209 18.5347 19.9463 18.4387 19.6757 18.3574C19.3143 18.248 19.0677 17.9187 19.0677 17.5427V16.8547C19.0677 16.3827 18.685 16 18.213 16H16.7637C16.2917 16 15.909 16.3827 15.909 16.8547V17.5401C15.909 17.9214 15.6543 18.2494 15.2903 18.36L15.1343 18.4081C14.773 18.5267 14.3783 18.4027 14.1596 18.0907L13.7664 17.5294C13.4957 17.144 12.9637 17.0494 12.577 17.32L11.389 18.152C11.0023 18.4227 10.909 18.9561 11.1797 19.3414L11.5744 19.9054C11.793 20.2174 11.773 20.632 11.5384 20.932L11.4397 21.0587C11.2117 21.3627 10.8156 21.4894 10.4596 21.3587L9.81167 21.124C9.369 20.9614 8.87834 21.1907 8.717 21.6347L8.22098 22.996C8.05964 23.44 8.28902 23.9307 8.73302 24.092L9.37703 24.3267C9.73703 24.4574 9.95836 24.8094 9.93569 25.1907C9.92902 25.3254 9.92501 25.4614 9.92501 25.5987C9.92501 25.728 9.92766 25.8574 9.93432 25.9867L8.63432 26.3361C8.17832 26.4574 7.90765 26.9267 8.02898 27.3814L8.40503 28.7827C8.52636 29.2387 8.99564 29.5094 9.45164 29.3867L10.1157 29.2094C10.4824 29.1107 10.865 29.2694 11.0677 29.592L11.153 29.728C11.361 30.0467 11.345 30.4614 11.0997 30.7534L10.6583 31.28C10.3557 31.6427 10.4024 32.1814 10.7637 32.4854L11.8744 33.416C12.2357 33.72 12.7743 33.6734 13.0783 33.3107L13.521 32.784C13.7623 32.496 14.1637 32.4027 14.5104 32.5507C14.7664 32.6614 15.0303 32.7574 15.301 32.8387C15.661 32.9481 15.909 33.2774 15.909 33.6547V34.3414C15.909 34.8134 16.2917 35.196 16.7637 35.196H18.213C18.685 35.196 19.0677 34.8134 19.0677 34.3414V33.656C19.0677 33.2747 19.321 32.9467 19.6863 32.8361L19.841 32.788C20.2024 32.6694 20.5984 32.7934 20.8157 33.1054L21.209 33.6654C21.4797 34.052 22.013 34.1467 22.3997 33.8761L23.5863 33.0454C23.973 32.7734 24.0677 32.24 23.797 31.8534L23.4024 31.2907C23.185 30.9787 23.2024 30.564 23.4384 30.2654L23.5357 30.1361C23.765 29.8334 24.1596 29.7081 24.5183 29.8374L25.1637 30.0721C25.6077 30.2347 26.0983 30.0054 26.2596 29.5614L26.7543 28.2C26.9156 27.756 26.689 27.2654 26.245 27.1041Z" fill="#11EBF6"/>
</svg>
