<svg width="459" height="410" viewBox="0 0 459 410" fill="none" xmlns="http://www.w3.org/2000/svg">
<rect width="459" height="410" rx="8" fill="#0B1739"/>
<path d="M44.16 9.2H45.8V17.08H44.16V9.2ZM37.42 10.62L38.78 10.08C39.1533 10.5467 39.5133 11.0533 39.86 11.6C40.2067 12.1333 40.52 12.6667 40.8 13.2C41.08 13.72 41.2933 14.1933 41.44 14.62L40 15.28C39.8533 14.84 39.6467 14.3533 39.38 13.82C39.1133 13.2733 38.8067 12.72 38.46 12.16C38.1267 11.6 37.78 11.0867 37.42 10.62ZM51.02 9.9L52.64 10.44C52.3467 11.0133 52.0333 11.6 51.7 12.2C51.38 12.7867 51.0533 13.36 50.72 13.92C50.3867 14.48 50.0667 14.9733 49.76 15.4L48.46 14.9C48.7533 14.4467 49.06 13.9333 49.38 13.36C49.7 12.7733 50.0067 12.18 50.3 11.58C50.5933 10.9667 50.8333 10.4067 51.02 9.9ZM37.7 16.28H52.38V27.62H50.8V17.78H37.7V16.28ZM38.36 20.68H51.4V22.12H38.36V20.68ZM37.3 25.24H51.6V26.74H37.3V25.24ZM58.52 10.56H71.64V27.28H70.04V12.06H60.06V27.38H58.52V10.56ZM59.56 17.48H70.72V18.96H59.56V17.48ZM59.52 24.58H70.74V26.08H59.52V24.58ZM79.16 9.18L80.7 9.56C80.46 10.1067 80.2 10.68 79.92 11.28C79.6533 11.8667 79.3733 12.4267 79.08 12.96C78.8 13.4933 78.5267 13.9733 78.26 14.4L76.96 14.04C77.2267 13.6 77.4933 13.1 77.76 12.54C78.04 11.9667 78.3 11.3867 78.54 10.8C78.7933 10.2 79 9.66 79.16 9.18ZM75.8 13.44C76.4933 13.4133 77.2933 13.3867 78.2 13.36C79.1067 13.32 80.0733 13.28 81.1 13.24C82.1267 13.1867 83.16 13.14 84.2 13.1L84.18 14.42C83.1933 14.4867 82.2 14.5467 81.2 14.6C80.2133 14.6533 79.2667 14.7067 78.36 14.76C77.4667 14.8133 76.6533 14.86 75.92 14.9L75.8 13.44ZM77 16.32H83.34V17.6H78.4V27.58H77V16.32ZM82.66 16.32H84.14V25.86C84.14 26.2467 84.0933 26.5467 84 26.76C83.9067 26.9867 83.72 27.1667 83.44 27.3C83.16 27.4067 82.8 27.4733 82.36 27.5C81.92 27.5267 81.3867 27.54 80.76 27.54C80.72 27.34 80.6533 27.1067 80.56 26.84C80.4667 26.5733 80.3667 26.3467 80.26 26.16C80.7267 26.1733 81.1533 26.18 81.54 26.18C81.9267 26.1933 82.1933 26.1933 82.34 26.18C82.4733 26.18 82.56 26.1533 82.6 26.1C82.64 26.06 82.66 25.9733 82.66 25.84V16.32ZM77.68 19.32H83.44V20.5H77.68V19.32ZM77.68 22.32H83.44V23.5H77.68V22.32ZM86.02 9.24H87.52V15.86C87.52 16.18 87.58 16.3867 87.7 16.48C87.8333 16.5733 88.1333 16.62 88.6 16.62C88.6933 16.62 88.88 16.62 89.16 16.62C89.4533 16.62 89.7733 16.62 90.12 16.62C90.4667 16.62 90.7933 16.62 91.1 16.62C91.4067 16.62 91.6267 16.62 91.76 16.62C92.0267 16.62 92.2267 16.5667 92.36 16.46C92.4933 16.34 92.5867 16.12 92.64 15.8C92.6933 15.4667 92.7333 14.9667 92.76 14.3C92.88 14.38 93.0133 14.46 93.16 14.54C93.32 14.62 93.4867 14.6933 93.66 14.76C93.8333 14.8133 93.9867 14.8533 94.12 14.88C94.0667 15.6933 93.9667 16.3267 93.82 16.78C93.6733 17.2333 93.4467 17.5467 93.14 17.72C92.8467 17.8933 92.4333 17.98 91.9 17.98C91.8067 17.98 91.64 17.98 91.4 17.98C91.1733 17.98 90.9067 17.98 90.6 17.98C90.3067 17.98 90.0067 17.98 89.7 17.98C89.4067 17.98 89.1467 17.98 88.92 17.98C88.6933 17.98 88.54 17.98 88.46 17.98C87.82 17.98 87.32 17.92 86.96 17.8C86.6133 17.68 86.3667 17.4667 86.22 17.16C86.0867 16.8533 86.02 16.4267 86.02 15.88V9.24ZM92.16 10.7L93.16 11.82C92.5867 12.0733 91.9533 12.3333 91.26 12.6C90.5667 12.8533 89.8533 13.0933 89.12 13.32C88.3867 13.5467 87.6733 13.76 86.98 13.96C86.9533 13.8133 86.8933 13.64 86.8 13.44C86.72 13.2267 86.6333 13.0467 86.54 12.9C87.1933 12.7 87.8667 12.4733 88.56 12.22C89.2533 11.9667 89.9133 11.7133 90.54 11.46C91.1667 11.1933 91.7067 10.94 92.16 10.7ZM86.02 18.54H87.5V25.3C87.5 25.62 87.5667 25.8333 87.7 25.94C87.8467 26.0333 88.16 26.08 88.64 26.08C88.7467 26.08 88.9467 26.08 89.24 26.08C89.5333 26.08 89.86 26.08 90.22 26.08C90.5933 26.08 90.9333 26.08 91.24 26.08C91.56 26.08 91.7933 26.08 91.94 26.08C92.22 26.08 92.4333 26.02 92.58 25.9C92.7267 25.78 92.8267 25.5333 92.88 25.16C92.9333 24.7733 92.9733 24.2 93 23.44C93.1867 23.56 93.4067 23.6733 93.66 23.78C93.9267 23.8867 94.16 23.9667 94.36 24.02C94.3067 24.9133 94.2067 25.6067 94.06 26.1C93.9133 26.5933 93.68 26.9333 93.36 27.12C93.0533 27.32 92.62 27.42 92.06 27.42C91.9667 27.42 91.8 27.42 91.56 27.42C91.32 27.42 91.0467 27.42 90.74 27.42C90.4333 27.42 90.12 27.42 89.8 27.42C89.48 27.42 89.2 27.42 88.96 27.42C88.7333 27.42 88.58 27.42 88.5 27.42C87.86 27.42 87.3533 27.36 86.98 27.24C86.62 27.12 86.3667 26.9067 86.22 26.6C86.0867 26.2933 86.02 25.86 86.02 25.3V18.54ZM92.4 19.62L93.38 20.74C92.8333 21.06 92.2 21.3667 91.48 21.66C90.76 21.94 90.0133 22.2067 89.24 22.46C88.4667 22.7 87.72 22.92 87 23.12C86.96 22.9733 86.8933 22.7933 86.8 22.58C86.7067 22.3667 86.62 22.1867 86.54 22.04C87.2333 21.84 87.94 21.6067 88.66 21.34C89.3933 21.0733 90.0867 20.7933 90.74 20.5C91.3933 20.2067 91.9467 19.9133 92.4 19.62ZM81.66 11.08L82.9 10.6C83.26 11.0533 83.6067 11.5533 83.94 12.1C84.2867 12.6333 84.6 13.16 84.88 13.68C85.16 14.2 85.3733 14.6667 85.52 15.08L84.22 15.66C84.0867 15.2467 83.88 14.7733 83.6 14.24C83.3333 13.7067 83.0267 13.1667 82.68 12.62C82.3467 12.0733 82.0067 11.56 81.66 11.08ZM96.24 11.34H103.48V12.66H96.24V11.34ZM104.22 16.14L113.28 14.72L113.5 16.04L104.44 17.5L104.22 16.14ZM103.78 20.68L114.04 19.14L114.24 20.48L104 22.04L103.78 20.68ZM111.7 9.28L112.96 10.28C112.24 10.7333 111.407 11.1667 110.46 11.58C109.513 11.98 108.527 12.3533 107.5 12.7C106.473 13.0333 105.46 13.3333 104.46 13.6C104.42 13.44 104.347 13.2533 104.24 13.04C104.147 12.8133 104.047 12.6267 103.94 12.48C104.9 12.2 105.867 11.8933 106.84 11.56C107.813 11.2133 108.72 10.8467 109.56 10.46C110.413 10.0733 111.127 9.68 111.7 9.28ZM107.52 12.1H108.98V25C108.98 25.4267 109.027 25.7067 109.12 25.84C109.227 25.96 109.467 26.02 109.84 26.02C109.92 26.02 110.067 26.02 110.28 26.02C110.493 26.02 110.727 26.02 110.98 26.02C111.233 26.02 111.473 26.02 111.7 26.02C111.927 26.02 112.093 26.02 112.2 26.02C112.427 26.02 112.593 25.94 112.7 25.78C112.807 25.62 112.88 25.3333 112.92 24.92C112.973 24.4933 113.013 23.88 113.04 23.08C113.213 23.2133 113.42 23.34 113.66 23.46C113.913 23.5667 114.14 23.6467 114.34 23.7C114.3 24.6067 114.213 25.3267 114.08 25.86C113.96 26.38 113.76 26.7467 113.48 26.96C113.2 27.1867 112.807 27.3 112.3 27.3C112.207 27.3 112.033 27.3 111.78 27.3C111.54 27.3 111.267 27.3 110.96 27.3C110.653 27.3 110.373 27.3 110.12 27.3C109.88 27.3 109.72 27.3 109.64 27.3C109.093 27.3 108.66 27.2333 108.34 27.1C108.033 26.9667 107.82 26.7267 107.7 26.38C107.58 26.0467 107.52 25.58 107.52 24.98V12.1ZM95.92 17.98H103.88V19.32H95.92V17.98ZM96.64 14.64H103.12V15.94H96.64V14.64ZM99.36 9.2H100.76V27.58H99.36V9.2ZM99.26 18.44L100.26 18.88C99.98 19.6133 99.6333 20.38 99.22 21.18C98.8067 21.98 98.3533 22.7333 97.86 23.44C97.38 24.1467 96.8933 24.7333 96.4 25.2C96.32 25 96.2067 24.7667 96.06 24.5C95.9267 24.2333 95.8 24.02 95.68 23.86C96.1333 23.46 96.5867 22.96 97.04 22.36C97.4933 21.7467 97.92 21.1 98.32 20.42C98.72 19.7267 99.0333 19.0667 99.26 18.44ZM100.64 18.94C100.787 19.0733 101 19.3133 101.28 19.66C101.573 19.9933 101.887 20.36 102.22 20.76C102.567 21.1467 102.88 21.5067 103.16 21.84C103.44 22.1733 103.64 22.42 103.76 22.58L102.8 23.78C102.653 23.5267 102.44 23.2133 102.16 22.84C101.893 22.4667 101.607 22.0733 101.3 21.66C101.007 21.2467 100.72 20.8667 100.44 20.52C100.16 20.16 99.9333 19.8733 99.76 19.66L100.64 18.94Z" fill="#55F0BD"/>
<path d="M14.4876 22.1C11.4503 22.1 8.98634 19.6374 8.98634 16.5987C8.98634 13.5587 11.4503 11.096 14.4876 11.096C17.5263 11.096 19.9903 13.5587 19.9903 16.5987C19.9903 19.6374 17.5263 22.1 14.4876 22.1ZM23.245 18.1041L22.5997 17.8694C22.241 17.7387 22.0197 17.3867 22.0397 17.0054C22.0477 16.8707 22.0516 16.7347 22.0516 16.5987C22.0516 16.468 22.0477 16.3387 22.041 16.2094L23.3423 15.86C23.7997 15.7387 24.069 15.2694 23.9464 14.8147L23.5717 13.4134C23.4504 12.9587 22.981 12.6867 22.5236 12.8094L21.8596 12.988C21.493 13.0854 21.1104 12.9267 20.9104 12.6041L20.8223 12.4681C20.6143 12.1494 20.6317 11.7347 20.8757 11.4427L21.3183 10.9147C21.6223 10.5534 21.5757 10.0147 21.213 9.71203L20.1024 8.78003C19.741 8.47603 19.201 8.5227 18.8983 8.88537L18.457 9.41073C18.2143 9.70006 17.8117 9.79336 17.4664 9.64536C17.209 9.5347 16.9463 9.43871 16.6757 9.35737C16.3143 9.24804 16.0677 8.91873 16.0677 8.54273V7.85471C16.0677 7.38271 15.685 7.00005 15.213 7.00005H13.7637C13.2917 7.00005 12.909 7.38271 12.909 7.85471V8.54006C12.909 8.92139 12.6543 9.24938 12.2903 9.36004L12.1343 9.40806C11.773 9.52672 11.3783 9.40271 11.1596 9.09071L10.7664 8.52938C10.4957 8.14405 9.9637 8.04937 9.57703 8.32004L8.38901 9.15203C8.00234 9.4227 7.90903 9.95606 8.1797 10.3414L8.57436 10.9054C8.79303 11.2174 8.77303 11.632 8.53836 11.932L8.43966 12.0587C8.21166 12.3627 7.81565 12.4894 7.45965 12.3587L6.81167 12.124C6.369 11.9614 5.87834 12.1907 5.717 12.6347L5.22098 13.996C5.05964 14.44 5.28902 14.9307 5.73302 15.092L6.37703 15.3267C6.73703 15.4574 6.95836 15.8094 6.93569 16.1907C6.92902 16.3254 6.92501 16.4614 6.92501 16.5987C6.92501 16.728 6.92766 16.8574 6.93432 16.9867L5.63432 17.3361C5.17832 17.4574 4.90765 17.9267 5.02898 18.3814L5.40503 19.7827C5.52636 20.2387 5.99564 20.5094 6.45164 20.3867L7.1157 20.2094C7.48237 20.1107 7.86499 20.2694 8.06766 20.592L8.15301 20.728C8.36101 21.0467 8.34502 21.4614 8.09969 21.7534L7.65835 22.28C7.35568 22.6427 7.40235 23.1814 7.76368 23.4854L8.87436 24.416C9.23569 24.72 9.77433 24.6734 10.0783 24.3107L10.521 23.784C10.7623 23.496 11.1637 23.4027 11.5104 23.5507C11.7664 23.6614 12.0303 23.7574 12.301 23.8387C12.661 23.9481 12.909 24.2774 12.909 24.6547V25.3414C12.909 25.8134 13.2917 26.196 13.7637 26.196H15.213C15.685 26.196 16.0677 25.8134 16.0677 25.3414V24.656C16.0677 24.2747 16.321 23.9467 16.6863 23.8361L16.841 23.788C17.2024 23.6694 17.5984 23.7934 17.8157 24.1054L18.209 24.6654C18.4797 25.052 19.013 25.1467 19.3997 24.8761L20.5863 24.0454C20.973 23.7734 21.0677 23.24 20.797 22.8534L20.4024 22.2907C20.185 21.9787 20.2024 21.564 20.4384 21.2654L20.5357 21.1361C20.765 20.8334 21.1596 20.7081 21.5183 20.8374L22.1637 21.0721C22.6077 21.2347 23.0983 21.0054 23.2596 20.5614L23.7543 19.2C23.9156 18.756 23.689 18.2654 23.245 18.1041Z" fill="#55F0BD"/>
<line x1="129" y1="63.5" x2="448" y2="63.5" stroke="#55F0BD"/>
<path d="M8.79638 34.1315L110.704 35.1523L130.406 62.4093L128.754 63.1889L109.665 36.7832L8.90475 35.774L8.79638 34.1315Z" fill="#55F0BD"/>
<path d="M396 45.7L397.2 45.4V32.6L396 32.3V32H401.7V32.3L400.5 32.6V38.88L405.4 32.9L403.9 32.3V32H407.7V32.3L406.1 32.9L402.6 37.2L408 45.4L409 45.7V46H406.2C405.6 46 405.087 45.8533 404.66 45.56C404.247 45.2533 403.86 44.8333 403.5 44.3L400.5 39.7V45.4L401.7 45.7V46H396V45.7ZM408.413 36.6L407.412 36.3V36H409.713C410.419 36 410.979 36.1467 411.393 36.44C411.806 36.7333 412.146 37.1533 412.413 37.7L414.613 42.3L415.753 39.38L414.413 36.6L413.413 36.3V36H415.713C416.419 36 416.979 36.1467 417.393 36.44C417.806 36.7333 418.146 37.1533 418.413 37.7L420.613 42.3L422.713 36.9L421.213 36.3V36H424.913V36.3L423.313 36.9L419.613 46.2H419.013L416.053 40.04L413.613 46.2H413.013L408.413 36.6ZM424.921 45.7L426.121 45.4V32.6L424.921 32.3V32H427.521C428.721 32 429.321 32.6 429.321 33.8V37C429.521 36.7333 429.728 36.52 429.941 36.36C430.514 35.92 431.174 35.7 431.921 35.7C432.668 35.7 433.334 35.86 433.921 36.18C434.521 36.4867 434.988 36.8933 435.321 37.4C435.654 37.9067 435.821 38.44 435.821 39V45.4L437.021 45.7V46H434.421C433.221 46 432.621 45.4 432.621 44.2V39C432.621 38.16 432.468 37.52 432.161 37.08C431.868 36.6267 431.521 36.4 431.121 36.4C430.614 36.4 430.161 36.6667 429.761 37.2C429.588 37.4267 429.441 37.6933 429.321 38V45.4L430.521 45.7V46H424.921V45.7Z" fill="#55F0BD"/>
</svg>
