<svg width="22" height="19" viewBox="0 0 22 19" fill="none" xmlns="http://www.w3.org/2000/svg">
<path d="M10.9996 14.9458C7.47823 14.9458 4.6216 12.5083 4.6216 9.50066C4.6216 6.4917 7.47823 4.05417 10.9996 4.05417C14.5225 4.05417 17.3792 6.4917 17.3792 9.50066C17.3792 12.5083 14.5225 14.9458 10.9996 14.9458ZM21.1525 10.9906L20.4044 10.7584C19.9886 10.629 19.7319 10.2806 19.7551 9.90318C19.7644 9.76989 19.769 9.63527 19.769 9.50066C19.769 9.37133 19.7644 9.24333 19.7567 9.11531L21.2654 8.76953C21.7956 8.64944 22.1079 8.18488 21.9657 7.73486L21.5313 6.34783C21.3906 5.89781 20.8464 5.62861 20.3162 5.75003L19.5464 5.92685C19.1213 6.02319 18.6777 5.86616 18.4458 5.54679L18.3438 5.41217C18.1026 5.09676 18.1227 4.68633 18.4056 4.39731L18.9188 3.87468C19.2712 3.51703 19.2172 2.98387 18.7967 2.68429L17.5091 1.76181C17.0902 1.46091 16.4641 1.5071 16.1132 1.86607L15.6015 2.38606C15.3201 2.67244 14.8534 2.76479 14.453 2.6183C14.1546 2.50877 13.8501 2.41376 13.5363 2.33325C13.1174 2.22504 12.8314 1.89908 12.8314 1.52692V0.845928C12.8314 0.378748 12.3878 0 11.8406 0H10.1603C9.61305 0 9.16937 0.378748 9.16937 0.845928V1.52428C9.16937 1.90172 8.8741 2.22636 8.4521 2.3359L8.27125 2.38342C7.85233 2.50088 7.39476 2.37812 7.14125 2.06931L6.68528 1.51371C6.37148 1.13231 5.75471 1.03861 5.30643 1.30651L3.92908 2.13001C3.4808 2.39791 3.37262 2.92583 3.68642 3.30722L4.14397 3.86546C4.39748 4.17428 4.37429 4.5847 4.10223 4.88164L3.98781 5.00701C3.72347 5.3079 3.26435 5.43328 2.85162 5.30395L2.10037 5.07167C1.58716 4.91067 1.01831 5.13767 0.831266 5.57714L0.25619 6.92456C0.0691469 7.36403 0.335078 7.84968 0.849834 8.00937L1.59647 8.24164C2.01384 8.37097 2.27044 8.71938 2.24416 9.09682C2.23643 9.23011 2.23178 9.36473 2.23178 9.50066C2.23178 9.62867 2.23485 9.75667 2.24258 9.88469L0.735408 10.2305C0.206739 10.3506 -0.107067 10.8151 0.0336023 11.2651L0.46957 12.6521C0.610239 13.1035 1.1543 13.3714 1.68297 13.25L2.45286 13.0745C2.87796 12.9768 3.32155 13.1338 3.55652 13.4532L3.65547 13.5878C3.89662 13.9032 3.87808 14.3137 3.59365 14.6027L3.08198 15.124C2.73108 15.4829 2.78519 16.0161 3.2041 16.317L4.49178 17.2382C4.9107 17.5391 5.53517 17.4929 5.88762 17.1339L6.4008 16.6126C6.68059 16.3276 7.14594 16.2352 7.54786 16.3817C7.84465 16.4912 8.15067 16.5862 8.46447 16.6667C8.88184 16.775 9.16937 17.1009 9.16937 17.4744V18.1541C9.16937 18.6213 9.61305 19 10.1603 19H11.8406C12.3878 19 12.8314 18.6213 12.8314 18.1541V17.4757C12.8314 17.0983 13.1251 16.7736 13.5487 16.6641L13.728 16.6166C14.1469 16.4991 14.606 16.6219 14.858 16.9307L15.314 17.485C15.6278 17.8677 16.2461 17.9614 16.6944 17.6935L18.0702 16.8713C18.5185 16.6021 18.6282 16.0742 18.3144 15.6915L17.8569 15.1345C17.6049 14.8257 17.625 14.4153 17.8986 14.1197L18.0115 13.9917C18.2773 13.6921 18.7348 13.568 19.1507 13.6961L19.8989 13.9283C20.4136 14.0893 20.9825 13.8623 21.1695 13.4229L21.743 12.0754C21.93 11.636 21.6673 11.1503 21.1525 10.9906Z" fill="#68F0EB"/>
</svg>
