<svg width="263" height="139" viewBox="0 0 263 139" fill="none" xmlns="http://www.w3.org/2000/svg"  preserveAspectRatio="none">
<rect width="263" height="139" rx="8" fill="#0B1739"/>
<path d="M233.627 40.0598C234.339 40.0598 234.917 39.2997 234.917 38.362C234.917 37.4244 234.339 36.6643 233.627 36.6643C232.916 36.6643 232.338 37.4244 232.338 38.362C232.338 39.2997 232.916 40.0598 233.627 40.0598Z" fill="#D9E1FA"/>
<path d="M239.718 40.0598C240.43 40.0598 241.007 39.2997 241.007 38.362C241.007 37.4244 240.43 36.6643 239.718 36.6643C239.006 36.6643 238.429 37.4244 238.429 38.362C238.429 39.2997 239.006 40.0598 239.718 40.0598Z" fill="#D9E1FA"/>
<path d="M227.537 40.0598C228.249 40.0598 228.826 39.2997 228.826 38.362C228.826 37.4244 228.249 36.6643 227.537 36.6643C226.825 36.6643 226.248 37.4244 226.248 38.362C226.248 39.2997 226.825 40.0598 227.537 40.0598Z" fill="#D9E1FA"/>
<path d="M16.4876 18.1C13.4503 18.1 10.9863 15.6374 10.9863 12.5987C10.9863 9.55871 13.4503 7.09605 16.4876 7.09605C19.5263 7.09605 21.9903 9.55871 21.9903 12.5987C21.9903 15.6374 19.5263 18.1 16.4876 18.1ZM25.245 14.1041L24.5997 13.8694C24.241 13.7387 24.0197 13.3867 24.0397 13.0054C24.0477 12.8707 24.0516 12.7347 24.0516 12.5987C24.0516 12.468 24.0477 12.3387 24.041 12.2094L25.3423 11.86C25.7997 11.7387 26.069 11.2694 25.9464 10.8147L25.5717 9.41336C25.4504 8.9587 24.981 8.68673 24.5236 8.80939L23.8596 8.98804C23.493 9.08537 23.1104 8.92672 22.9104 8.60405L22.8223 8.46805C22.6143 8.14938 22.6317 7.73473 22.8757 7.44273L23.3183 6.9147C23.6223 6.55336 23.5757 6.0147 23.213 5.71203L22.1024 4.78003C21.741 4.47603 21.201 4.5227 20.8983 4.88537L20.457 5.41073C20.2143 5.70006 19.8117 5.79336 19.4664 5.64536C19.209 5.5347 18.9463 5.43871 18.6757 5.35737C18.3143 5.24804 18.0677 4.91873 18.0677 4.54273V3.85471C18.0677 3.38271 17.685 3.00005 17.213 3.00005H15.7637C15.2917 3.00005 14.909 3.38271 14.909 3.85471V4.54006C14.909 4.92139 14.6543 5.24938 14.2903 5.36004L14.1343 5.40806C13.773 5.52672 13.3783 5.40271 13.1596 5.09071L12.7664 4.52938C12.4957 4.14405 11.9637 4.04937 11.577 4.32004L10.389 5.15203C10.0023 5.4227 9.90903 5.95606 10.1797 6.34139L10.5744 6.90539C10.793 7.21739 10.773 7.63205 10.5384 7.93205L10.4397 8.05871C10.2117 8.36271 9.81565 8.48938 9.45965 8.35871L8.81167 8.12404C8.369 7.96137 7.87834 8.19072 7.717 8.63472L7.22098 9.99605C7.05964 10.44 7.28902 10.9307 7.73302 11.092L8.37703 11.3267C8.73703 11.4574 8.95836 11.8094 8.93569 12.1907C8.92902 12.3254 8.92501 12.4614 8.92501 12.5987C8.92501 12.728 8.92766 12.8574 8.93432 12.9867L7.63432 13.3361C7.17832 13.4574 6.90765 13.9267 7.02898 14.3814L7.40503 15.7827C7.52636 16.2387 7.99564 16.5094 8.45164 16.3867L9.1157 16.2094C9.48237 16.1107 9.86499 16.2694 10.0677 16.592L10.153 16.728C10.361 17.0467 10.345 17.4614 10.0997 17.7534L9.65835 18.28C9.35568 18.6427 9.40235 19.1814 9.76368 19.4854L10.8744 20.416C11.2357 20.72 11.7743 20.6734 12.0783 20.3107L12.521 19.784C12.7623 19.496 13.1637 19.4027 13.5104 19.5507C13.7664 19.6614 14.0303 19.7574 14.301 19.8387C14.661 19.9481 14.909 20.2774 14.909 20.6547V21.3414C14.909 21.8134 15.2917 22.196 15.7637 22.196H17.213C17.685 22.196 18.0677 21.8134 18.0677 21.3414V20.656C18.0677 20.2747 18.321 19.9467 18.6863 19.8361L18.841 19.788C19.2024 19.6694 19.5984 19.7934 19.8157 20.1054L20.209 20.6654C20.4797 21.052 21.013 21.1467 21.3997 20.8761L22.5863 20.0454C22.973 19.7734 23.0677 19.24 22.797 18.8534L22.4024 18.2907C22.185 17.9787 22.2024 17.564 22.4384 17.2654L22.5357 17.1361C22.765 16.8334 23.1596 16.7081 23.5183 16.8374L24.1637 17.0721C24.6077 17.2347 25.0983 17.0054 25.2596 16.5614L25.7543 15.2C25.9156 14.756 25.689 14.2654 25.245 14.1041Z" fill="#7C47DF"/>
<path d="M166.576 128.941L235.364 129.921L247.498 108.794L248.655 109.458L236.129 131.265L166.556 130.273L166.576 128.941Z" fill="#7C47DF"/>
<path d="M254.843 106.171C253.98 107.698 252.043 108.237 250.516 107.373C248.988 106.51 248.449 104.573 249.313 103.045C250.176 101.519 252.113 100.981 253.64 101.843C255.168 102.706 255.707 104.645 254.843 106.171Z" fill="#7C47DF"/>
<path d="M100.679 125.941L31.8914 126.921L19.7565 105.794L18.5999 106.458L31.126 128.265L100.699 127.273L100.679 125.941Z" fill="#7C47DF"/>
<path d="M15.4121 106.171C16.2748 107.698 18.2121 108.237 19.7388 107.373C21.2668 106.51 21.8055 104.573 20.9415 103.045C20.0788 101.519 18.1415 100.981 16.6148 101.843C15.0868 102.706 14.5481 104.645 15.4121 106.171Z" fill="#7C47DF"/>
<line x1="35" y1="12.5" x2="236" y2="12.5" stroke="#7C47DF"/>
</svg>
