<svg width="548" height="232" viewBox="0 0 548 232" fill="none" xmlns="http://www.w3.org/2000/svg" preserveAspectRatio="none">
<rect width="548" height="232" rx="8" fill="#0B1739"/>
<path d="M18.4876 25.1C15.4503 25.1 12.9863 22.6374 12.9863 19.5987C12.9863 16.5587 15.4503 14.096 18.4876 14.096C21.5263 14.096 23.9903 16.5587 23.9903 19.5987C23.9903 22.6374 21.5263 25.1 18.4876 25.1ZM27.245 21.1041L26.5997 20.8694C26.241 20.7387 26.0197 20.3867 26.0397 20.0054C26.0477 19.8707 26.0516 19.7347 26.0516 19.5987C26.0516 19.468 26.0477 19.3387 26.041 19.2094L27.3423 18.86C27.7997 18.7387 28.069 18.2694 27.9464 17.8147L27.5717 16.4134C27.4504 15.9587 26.981 15.6867 26.5236 15.8094L25.8596 15.988C25.493 16.0854 25.1104 15.9267 24.9104 15.6041L24.8223 15.4681C24.6143 15.1494 24.6317 14.7347 24.8757 14.4427L25.3183 13.9147C25.6223 13.5534 25.5757 13.0147 25.213 12.712L24.1024 11.78C23.741 11.476 23.201 11.5227 22.8983 11.8854L22.457 12.4107C22.2143 12.7001 21.8117 12.7934 21.4664 12.6454C21.209 12.5347 20.9463 12.4387 20.6757 12.3574C20.3143 12.248 20.0677 11.9187 20.0677 11.5427V10.8547C20.0677 10.3827 19.685 10 19.213 10H17.7637C17.2917 10 16.909 10.3827 16.909 10.8547V11.5401C16.909 11.9214 16.6543 12.2494 16.2903 12.36L16.1343 12.4081C15.773 12.5267 15.3783 12.4027 15.1596 12.0907L14.7664 11.5294C14.4957 11.144 13.9637 11.0494 13.577 11.32L12.389 12.152C12.0023 12.4227 11.909 12.9561 12.1797 13.3414L12.5744 13.9054C12.793 14.2174 12.773 14.632 12.5384 14.932L12.4397 15.0587C12.2117 15.3627 11.8156 15.4894 11.4596 15.3587L10.8117 15.124C10.369 14.9614 9.87834 15.1907 9.717 15.6347L9.22098 16.996C9.05964 17.44 9.28902 17.9307 9.73302 18.092L10.377 18.3267C10.737 18.4574 10.9584 18.8094 10.9357 19.1907C10.929 19.3254 10.925 19.4614 10.925 19.5987C10.925 19.728 10.9277 19.8574 10.9343 19.9867L9.63432 20.3361C9.17832 20.4574 8.90765 20.9267 9.02898 21.3814L9.40503 22.7827C9.52636 23.2387 9.99564 23.5094 10.4516 23.3867L11.1157 23.2094C11.4824 23.1107 11.865 23.2694 12.0677 23.592L12.153 23.728C12.361 24.0467 12.345 24.4614 12.0997 24.7534L11.6583 25.28C11.3557 25.6427 11.4024 26.1814 11.7637 26.4854L12.8744 27.416C13.2357 27.72 13.7743 27.6734 14.0783 27.3107L14.521 26.784C14.7623 26.496 15.1637 26.4027 15.5104 26.5507C15.7664 26.6614 16.0303 26.7574 16.301 26.8387C16.661 26.9481 16.909 27.2774 16.909 27.6547V28.3414C16.909 28.8134 17.2917 29.196 17.7637 29.196H19.213C19.685 29.196 20.0677 28.8134 20.0677 28.3414V27.656C20.0677 27.2747 20.321 26.9467 20.6863 26.8361L20.841 26.788C21.2024 26.6694 21.5984 26.7934 21.8157 27.1054L22.209 27.6654C22.4797 28.052 23.013 28.1467 23.3997 27.8761L24.5863 27.0454C24.973 26.7734 25.0677 26.24 24.797 25.8534L24.4024 25.2907C24.185 24.9787 24.2024 24.564 24.4384 24.2654L24.5357 24.1361C24.765 23.8334 25.1596 23.7081 25.5183 23.8374L26.1637 24.0721C26.6077 24.2347 27.0983 24.0054 27.2596 23.5614L27.7543 22.2C27.9156 21.756 27.689 21.2654 27.245 21.1041Z" fill="#90FFDC"/>
</svg>
