<svg width="840" height="382" viewBox="0 0 840 382" fill="none" xmlns="http://www.w3.org/2000/svg" preserveAspectRatio="none">
<rect y="0.06604" width="840" height="381.934" rx="8" fill="#0B1739"/>
<path d="M39.4993 28.7452C33.2569 28.7452 28.1928 24.3833 28.1928 19.0012C28.1928 13.6167 33.2569 9.25484 39.4993 9.25484C45.7444 9.25484 50.8085 13.6167 50.8085 19.0012C50.8085 24.3833 45.7444 28.7452 39.4993 28.7452ZM57.4977 21.6674L56.1714 21.2518C55.4342 21.0204 54.9793 20.3969 55.0204 19.7215C55.0368 19.483 55.045 19.2421 55.045 19.0012C55.045 18.7697 55.0369 18.5407 55.0232 18.3116L57.6977 17.6928C58.6376 17.4779 59.1912 16.6466 58.9391 15.8413L58.1691 13.3593C57.9197 12.554 56.955 12.0723 56.0151 12.2895L54.6504 12.6059C53.8969 12.7783 53.1105 12.4973 52.6994 11.9258L52.5185 11.6849C52.091 11.1205 52.1266 10.3861 52.6281 9.86888L53.5379 8.93364C54.1626 8.29364 54.0669 7.33955 53.3215 6.80346L51.0388 5.15271C50.2962 4.61426 49.1863 4.69693 48.5642 5.33928L47.6572 6.2698C47.1584 6.78227 46.3309 6.94752 45.6212 6.68538C45.0923 6.48937 44.5524 6.31936 43.9962 6.1753C43.2535 5.98165 42.7466 5.39837 42.7466 4.73239V3.51377C42.7466 2.67776 41.9602 2 40.9901 2H38.0114C37.0413 2 36.2548 2.67776 36.2548 3.51377V4.72766C36.2548 5.40308 35.7314 5.98401 34.9833 6.18003L34.6627 6.26507C33.92 6.47525 33.1089 6.25559 32.6595 5.70298L31.8512 4.70875C31.2949 4.02625 30.2015 3.85856 29.4068 4.33797L26.9652 5.8116C26.1705 6.29101 25.9787 7.23569 26.535 7.91819L27.3461 8.91715C27.7955 9.46976 27.7544 10.2042 27.2721 10.7356L27.0693 10.9599C26.6007 11.4984 25.7868 11.7227 25.0551 11.4913L23.7234 11.0756C22.8136 10.7875 21.8052 11.1937 21.4736 11.9801L20.4542 14.3913C20.1226 15.1777 20.594 16.0468 21.5065 16.3326L22.8301 16.7482C23.57 16.9796 24.0249 17.6031 23.9783 18.2785C23.9646 18.517 23.9563 18.7579 23.9563 19.0012C23.9563 19.2303 23.9618 19.4593 23.9755 19.6884L21.3037 20.3072C20.3665 20.5221 19.8102 21.3533 20.0596 22.1586L20.8324 24.6407C21.0818 25.4483 22.0463 25.9277 22.9835 25.7105L24.3483 25.3964C25.1018 25.2217 25.8882 25.5027 26.3047 26.0742L26.4802 26.3151C26.9076 26.8795 26.8748 27.6139 26.3706 28.1311L25.4635 29.0639C24.8415 29.7063 24.9374 30.6604 25.68 31.1988L27.9627 32.8472C28.7053 33.3857 29.8123 33.3031 30.4371 32.6607L31.3469 31.7278C31.8429 31.2177 32.6678 31.0524 33.3803 31.3146C33.9064 31.5106 34.4489 31.6806 35.0052 31.8247C35.7451 32.0184 36.2548 32.6016 36.2548 33.27V34.4862C36.2548 35.3222 37.0413 36 38.0114 36H40.9901C41.9602 36 42.7466 35.3222 42.7466 34.4862V33.2723C42.7466 32.5969 43.2673 32.016 44.0181 31.82L44.336 31.7349C45.0786 31.5247 45.8925 31.7444 46.3392 32.297L47.1475 33.2889C47.7038 33.9737 48.8 34.1414 49.5947 33.662L52.0335 32.1907C52.8282 31.7089 53.0228 30.7643 52.4665 30.0794L51.6554 29.0829C51.2087 28.5302 51.2443 27.7958 51.7294 27.2668L51.9294 27.0377C52.4007 26.5016 53.2118 26.2797 53.9489 26.5087L55.2753 26.9244C56.1878 27.2125 57.1962 26.8063 57.5278 26.0199L58.5444 23.6087C58.876 22.8223 58.4102 21.9532 57.4977 21.6674Z" fill="#68F0EB"/>
<path d="M49.0409 16.0459L191.625 14.5651L217.681 34.7789L215.324 35.406L190.08 15.8236L49.1009 17.2878L49.0409 16.0459Z" fill="#68F0EB"/>
<path d="M830.961 38.7838L217.166 35.8954L217.202 33.9426L830.998 36.831" fill="#68F0EB"/>
</svg>
