<svg width="702" height="494" viewBox="0 0 702 494" fill="none" xmlns="http://www.w3.org/2000/svg" preserveAspectRatio="none">
<rect width="702" height="494" rx="8" fill="#0B1739"/>
<path d="M20.9997 19.9458C18.1186 19.9458 15.7813 17.5083 15.7813 14.5007C15.7813 11.4917 18.1186 9.05417 20.9997 9.05417C23.882 9.05417 26.2193 11.4917 26.2193 14.5007C26.2193 17.5083 23.882 19.9458 20.9997 19.9458ZM29.3066 15.9906L28.6945 15.7584C28.3543 15.629 28.1443 15.2806 28.1633 14.9032C28.1709 14.7699 28.1746 14.6353 28.1746 14.5007C28.1746 14.3713 28.1709 14.2433 28.1646 14.1153L29.3989 13.7695C29.8327 13.6494 30.0883 13.1849 29.9719 12.7349L29.6165 11.3478C29.5014 10.8978 29.0562 10.6286 28.6224 10.75L27.9925 10.9268C27.6447 11.0232 27.2818 10.8662 27.092 10.5468L27.0086 10.4122C26.8113 10.0968 26.8277 9.68633 27.0591 9.39731L27.479 8.87468C27.7674 8.51703 27.7232 7.98387 27.3792 7.68429L26.3256 6.76181C25.9829 6.46091 25.4706 6.5071 25.1835 6.86607L24.7648 7.38606C24.5347 7.67244 24.1527 7.76479 23.8252 7.6183C23.5811 7.50877 23.3319 7.41376 23.0752 7.33325C22.7324 7.22504 22.4984 6.89908 22.4984 6.52692V5.84593C22.4984 5.37875 22.1355 5 21.6877 5H20.3129C19.8652 5 19.5022 5.37875 19.5022 5.84593V6.52428C19.5022 6.90172 19.2606 7.22636 18.9154 7.3359L18.7674 7.38342C18.4246 7.50088 18.0503 7.37812 17.8428 7.06931L17.4698 6.51371C17.213 6.13231 16.7084 6.03861 16.3416 6.30651L15.2147 7.13001C14.8479 7.39791 14.7594 7.92583 15.0162 8.30722L15.3905 8.86546C15.5979 9.17428 15.579 9.5847 15.3564 9.88164L15.2627 10.007C15.0465 10.3079 14.6708 10.4333 14.3331 10.3039L13.7185 10.0717C13.2986 9.91067 12.8332 10.1377 12.6801 10.5771L12.2096 11.9246C12.0566 12.364 12.2742 12.8497 12.6953 13.0094L13.3062 13.2416C13.6477 13.371 13.8576 13.7194 13.8361 14.0968C13.8298 14.2301 13.826 14.3647 13.826 14.5007C13.826 14.6287 13.8285 14.7567 13.8348 14.8847L12.6017 15.2305C12.1692 15.3506 11.9124 15.8151 12.0275 16.2651L12.3842 17.6521C12.4993 18.1035 12.9444 18.3714 13.377 18.25L14.0069 18.0745C14.3547 17.9768 14.7176 18.1338 14.9099 18.4532L14.9908 18.5878C15.1881 18.9032 15.173 19.3137 14.9403 19.6027L14.5216 20.124C14.2345 20.4829 14.2788 21.0161 14.6215 21.317L15.6751 22.2382C16.0178 22.5391 16.5288 22.4929 16.8171 22.1339L17.237 21.6126C17.4659 21.3276 17.8467 21.2352 18.1755 21.3817C18.4184 21.4912 18.6687 21.5862 18.9255 21.6667C19.267 21.775 19.5022 22.1009 19.5022 22.4744V23.1541C19.5022 23.6213 19.8652 24 20.3129 24H21.6877C22.1355 24 22.4984 23.6213 22.4984 23.1541V22.4757C22.4984 22.0983 22.7387 21.7736 23.0853 21.6641L23.232 21.6166C23.5748 21.4991 23.9504 21.6219 24.1566 21.9307L24.5296 22.485C24.7864 22.8677 25.2923 22.9614 25.6591 22.6935L26.7847 21.8713C27.1515 21.6021 27.2413 21.0742 26.9845 20.6915L26.6102 20.1345C26.404 19.8257 26.4205 19.4153 26.6443 19.1197L26.7366 18.9917C26.9542 18.6921 27.3285 18.568 27.6687 18.6961L28.2809 18.9283C28.7021 19.0893 29.1675 18.8623 29.3205 18.4229L29.7897 17.0754C29.9428 16.636 29.7278 16.1503 29.3066 15.9906Z" fill="#68F0EB"/>
<path d="M683.5 17.9458C680.458 17.9458 677.991 15.5083 677.991 12.5007C677.991 9.4917 680.458 7.05417 683.5 7.05417C686.542 7.05417 689.009 9.4917 689.009 12.5007C689.009 15.5083 686.542 17.9458 683.5 17.9458ZM692.268 13.9906L691.622 13.7584C691.263 13.629 691.041 13.2806 691.061 12.9032C691.069 12.7699 691.073 12.6353 691.073 12.5007C691.073 12.3713 691.069 12.2433 691.063 12.1153L692.366 11.7695C692.823 11.6494 693.093 11.1849 692.97 10.7349L692.595 9.34783C692.474 8.89781 692.004 8.62861 691.546 8.75003L690.881 8.92685C690.514 9.02319 690.131 8.86616 689.93 8.54679L689.842 8.41217C689.634 8.09676 689.651 7.68633 689.896 7.39731L690.339 6.87468C690.643 6.51703 690.597 5.98387 690.234 5.68429L689.121 4.76181C688.76 4.46091 688.219 4.5071 687.916 4.86607L687.474 5.38606C687.231 5.67244 686.828 5.76479 686.482 5.6183C686.224 5.50877 685.961 5.41376 685.69 5.33325C685.329 5.22504 685.082 4.89908 685.082 4.52692V3.84593C685.082 3.37875 684.699 3 684.226 3H682.775C682.302 3 681.919 3.37875 681.919 3.84593V4.52428C681.919 4.90172 681.664 5.22636 681.3 5.3359L681.143 5.38342C680.782 5.50088 680.386 5.37812 680.167 5.06931L679.774 4.51371C679.503 4.13231 678.97 4.03861 678.583 4.30651L677.393 5.13001C677.006 5.39791 676.913 5.92583 677.184 6.30722L677.579 6.86546C677.798 7.17428 677.778 7.5847 677.543 7.88164L677.444 8.00701C677.216 8.3079 676.819 8.43328 676.463 8.30395L675.814 8.07167C675.371 7.91067 674.879 8.13767 674.718 8.57714L674.221 9.92456C674.06 10.364 674.289 10.8497 674.734 11.0094L675.379 11.2416C675.739 11.371 675.961 11.7194 675.938 12.0968C675.931 12.2301 675.927 12.3647 675.927 12.5007C675.927 12.6287 675.93 12.7567 675.937 12.8847L674.635 13.2305C674.179 13.3506 673.908 13.8151 674.029 14.2651L674.406 15.6521C674.527 16.1035 674.997 16.3714 675.453 16.25L676.118 16.0745C676.486 15.9768 676.869 16.1338 677.072 16.4532L677.157 16.5878C677.365 16.9032 677.349 17.3137 677.104 17.6027L676.662 18.124C676.359 18.4829 676.405 19.0161 676.767 19.317L677.879 20.2382C678.241 20.5391 678.78 20.4929 679.085 20.1339L679.528 19.6126C679.77 19.3276 680.171 19.2352 680.519 19.3817C680.775 19.4912 681.039 19.5862 681.31 19.6667C681.671 19.775 681.919 20.1009 681.919 20.4744V21.1541C681.919 21.6213 682.302 22 682.775 22H684.226C684.699 22 685.082 21.6213 685.082 21.1541V20.4757C685.082 20.0983 685.335 19.7736 685.701 19.6641L685.856 19.6166C686.218 19.4991 686.614 19.6219 686.832 19.9307L687.226 20.485C687.497 20.8677 688.031 20.9614 688.418 20.6935L689.606 19.8713C689.993 19.6021 690.088 19.0742 689.817 18.6915L689.422 18.1345C689.204 17.8257 689.222 17.4153 689.458 17.1197L689.555 16.9917C689.785 16.6921 690.18 16.568 690.539 16.6961L691.185 16.9283C691.63 17.0893 692.121 16.8623 692.283 16.4229L692.778 15.0754C692.94 14.636 692.713 14.1503 692.268 13.9906Z" fill="#68F0EB"/>
<path d="M679.11 14.1539L613.195 12.5644L601.149 34.2636L602.239 34.9368L613.909 13.9154L679.082 15.4871L679.11 14.1539Z" fill="#68F0EB"/>
<path d="M421.421 37.0619L601.7 35.2673L601.688 33.9341L421.409 35.7286" fill="#68F0EB"/>
<path d="M25.4692 14.1539L92.2213 12.5644L104.419 34.2636L103.316 34.9368L91.498 13.9154L25.4973 15.4871L25.4692 14.1539Z" fill="#68F0EB"/>
<path d="M286.429 37.0619L103.862 35.2673L103.874 33.9341L286.441 35.7286" fill="#68F0EB"/>
</svg>
