<svg width="710" height="493" viewBox="0 0 710 493" fill="none" xmlns="http://www.w3.org/2000/svg" preserveAspectRatio="none">
<rect x="0.846191" y="0.892822" width="709.152" height="492.107" rx="8" fill="#0B1739"/>
<path d="M33.9994 34.1719C28.8774 34.1719 24.7223 30.0666 24.7223 25.0011C24.7223 19.9334 28.8774 15.8281 33.9994 15.8281C39.1236 15.8281 43.2788 19.9334 43.2788 25.0011C43.2788 30.0666 39.1236 34.1719 33.9994 34.1719ZM48.7673 27.5105L47.6791 27.1193C47.0743 26.9015 46.701 26.3147 46.7347 25.679C46.7482 25.4546 46.7549 25.2278 46.7549 25.0011C46.7549 24.7833 46.7482 24.5677 46.737 24.3521L48.9314 23.7697C49.7027 23.5675 50.1569 22.7851 49.9501 22.0271L49.3182 19.6911C49.1136 18.9332 48.3221 18.4798 47.5509 18.6843L46.4311 18.9821C45.8128 19.1443 45.1676 18.8798 44.8303 18.342L44.6819 18.1152C44.3311 17.584 44.3603 16.8928 44.7718 16.406L45.5182 15.5258C46.0309 14.9234 45.9523 14.0255 45.3407 13.5209L43.4677 11.9673C42.8584 11.4605 41.9477 11.5383 41.4373 12.1429L40.6931 13.0186C40.2838 13.501 39.6049 13.6565 39.0225 13.4098C38.5886 13.2253 38.1456 13.0653 37.6892 12.9297C37.0798 12.7474 36.6639 12.1985 36.6639 11.5717V10.4247C36.6639 9.63789 36.0186 9 35.2227 9H32.7786C31.9826 9 31.3373 9.63789 31.3373 10.4247V11.5672C31.3373 12.2029 30.9078 12.7497 30.294 12.9341L30.0309 13.0142C29.4216 13.212 28.756 13.0053 28.3873 12.4852L27.724 11.5494C27.2676 10.9071 26.3705 10.7492 25.7184 11.2004L23.715 12.5874C23.063 13.0386 22.9056 13.9277 23.3621 14.5701L24.0276 15.5103C24.3963 16.0304 24.3626 16.7216 23.9669 17.2217L23.8004 17.4329C23.416 17.9396 22.7481 18.1508 22.1478 17.933L21.0551 17.5418C20.3086 17.2706 19.4812 17.6529 19.2091 18.3931L18.3726 20.6624C18.1006 21.4026 18.4874 22.2205 19.2361 22.4895L20.3221 22.8807C20.9292 23.0985 21.3025 23.6853 21.2642 24.321C21.253 24.5455 21.2462 24.7722 21.2462 25.0011C21.2462 25.2167 21.2507 25.4323 21.2619 25.6479L19.0697 26.2303C18.3007 26.4325 17.8443 27.2149 18.0489 27.9728L18.683 30.3089C18.8876 31.069 19.679 31.5202 20.448 31.3157L21.5678 31.0202C22.1861 30.8557 22.8314 31.1202 23.1731 31.658L23.317 31.8848C23.6678 32.416 23.6408 33.1072 23.2271 33.594L22.4829 34.4719C21.9725 35.0765 22.0512 35.9745 22.6605 36.4813L24.5335 38.0327C25.1428 38.5395 26.0512 38.4617 26.5638 37.8571L27.3103 36.9791C27.7172 36.499 28.3941 36.3435 28.9787 36.5902C29.4104 36.7747 29.8555 36.9347 30.312 37.0703C30.919 37.2526 31.3373 37.8015 31.3373 38.4306V39.5753C31.3373 40.3621 31.9826 41 32.7786 41H35.2227C36.0186 41 36.6639 40.3621 36.6639 39.5753V38.4328C36.6639 37.7971 37.0911 37.2503 37.7072 37.0659L37.968 36.9858C38.5774 36.788 39.2452 36.9947 39.6117 37.5148L40.2749 38.4484C40.7313 39.0929 41.6307 39.2508 42.2828 38.7996L44.2839 37.4148C44.9359 36.9614 45.0956 36.0723 44.6392 35.4277L43.9736 34.4897C43.6071 33.9696 43.6364 33.2784 44.0343 32.7805L44.1985 32.5649C44.5852 32.0604 45.2507 31.8514 45.8555 32.067L46.9438 32.4582C47.6926 32.7294 48.5199 32.3471 48.792 31.6069L49.6262 29.3376C49.8982 28.5974 49.516 27.7795 48.7673 27.5105Z" fill="#68F0EB"/>
<path d="M42.248 21.4823L162.622 19.5744L184.618 45.6191L182.629 46.4271L161.317 21.196L42.2987 23.0824L42.248 21.4823Z" fill="#68F0EB"/>
<path d="M702.367 50.7791L184.184 47.0574L184.215 44.5413L702.398 48.263" fill="#68F0EB"/>
</svg>
