<svg width="839" height="857" viewBox="0 0 839 857" fill="none" xmlns="http://www.w3.org/2000/svg" preserveAspectRatio="none">
<rect width="839" height="857" rx="8" fill="#0B1739"/>
<path d="M24.9996 19.9458C21.4782 19.9458 18.6216 17.5083 18.6216 14.5007C18.6216 11.4917 21.4782 9.05417 24.9996 9.05417C28.5225 9.05417 31.3792 11.4917 31.3792 14.5007C31.3792 17.5083 28.5225 19.9458 24.9996 19.9458ZM35.1525 15.9906L34.4044 15.7584C33.9886 15.629 33.7319 15.2806 33.7551 14.9032C33.7644 14.7699 33.769 14.6353 33.769 14.5007C33.769 14.3713 33.7644 14.2433 33.7567 14.1153L35.2654 13.7695C35.7956 13.6494 36.1079 13.1849 35.9657 12.7349L35.5313 11.3478C35.3906 10.8978 34.8464 10.6286 34.3162 10.75L33.5464 10.9268C33.1213 11.0232 32.6777 10.8662 32.4458 10.5468L32.3438 10.4122C32.1026 10.0968 32.1227 9.68633 32.4056 9.39731L32.9188 8.87468C33.2712 8.51703 33.2172 7.98387 32.7967 7.68429L31.5091 6.76181C31.0902 6.46091 30.4641 6.5071 30.1132 6.86607L29.6015 7.38606C29.3201 7.67244 28.8534 7.76479 28.453 7.6183C28.1546 7.50877 27.8501 7.41376 27.5363 7.33325C27.1174 7.22504 26.8314 6.89908 26.8314 6.52692V5.84593C26.8314 5.37875 26.3878 5 25.8406 5H24.1603C23.613 5 23.1694 5.37875 23.1694 5.84593V6.52428C23.1694 6.90172 22.8741 7.22636 22.4521 7.3359L22.2712 7.38342C21.8523 7.50088 21.3948 7.37812 21.1412 7.06931L20.6853 6.51371C20.3715 6.13231 19.7547 6.03861 19.3064 6.30651L17.9291 7.13001C17.4808 7.39791 17.3726 7.92583 17.6864 8.30722L18.144 8.86546C18.3975 9.17428 18.3743 9.5847 18.1022 9.88164L17.9878 10.007C17.7235 10.3079 17.2643 10.4333 16.8516 10.3039L16.1004 10.0717C15.5872 9.91067 15.0183 10.1377 14.8313 10.5771L14.2562 11.9246C14.0691 12.364 14.3351 12.8497 14.8498 13.0094L15.5965 13.2416C16.0138 13.371 16.2704 13.7194 16.2442 14.0968C16.2364 14.2301 16.2318 14.3647 16.2318 14.5007C16.2318 14.6287 16.2348 14.7567 16.2426 14.8847L14.7354 15.2305C14.2067 15.3506 13.8929 15.8151 14.0336 16.2651L14.4696 17.6521C14.6102 18.1035 15.1543 18.3714 15.683 18.25L16.4529 18.0745C16.878 17.9768 17.3216 18.1338 17.5565 18.4532L17.6555 18.5878C17.8966 18.9032 17.8781 19.3137 17.5937 19.6027L17.082 20.124C16.7311 20.4829 16.7852 21.0161 17.2041 21.317L18.4918 22.2382C18.9107 22.5391 19.5352 22.4929 19.8876 22.1339L20.4008 21.6126C20.6806 21.3276 21.1459 21.2352 21.5479 21.3817C21.8447 21.4912 22.1507 21.5862 22.4645 21.6667C22.8818 21.775 23.1694 22.1009 23.1694 22.4744V23.1541C23.1694 23.6213 23.613 24 24.1603 24H25.8406C26.3878 24 26.8314 23.6213 26.8314 23.1541V22.4757C26.8314 22.0983 27.1251 21.7736 27.5487 21.6641L27.728 21.6166C28.1469 21.4991 28.606 21.6219 28.858 21.9307L29.314 22.485C29.6278 22.8677 30.2461 22.9614 30.6944 22.6935L32.0702 21.8713C32.5185 21.6021 32.6282 21.0742 32.3144 20.6915L31.8569 20.1345C31.6049 19.8257 31.625 19.4153 31.8986 19.1197L32.0115 18.9917C32.2773 18.6921 32.7348 18.568 33.1507 18.6961L33.8989 18.9283C34.4136 19.0893 34.9825 18.8623 35.1695 18.4229L35.743 17.0754C35.93 16.636 35.6673 16.1503 35.1525 15.9906Z" fill="#68F0EB"/>
<path d="M817 17.9458C813.478 17.9458 810.622 15.5083 810.622 12.5007C810.622 9.4917 813.478 7.05417 817 7.05417C820.523 7.05417 823.379 9.4917 823.379 12.5007C823.379 15.5083 820.523 17.9458 817 17.9458ZM827.153 13.9906L826.404 13.7584C825.989 13.629 825.732 13.2806 825.755 12.9032C825.764 12.7699 825.769 12.6353 825.769 12.5007C825.769 12.3713 825.764 12.2433 825.757 12.1153L827.265 11.7695C827.796 11.6494 828.108 11.1849 827.966 10.7349L827.531 9.34783C827.391 8.89781 826.846 8.62861 826.316 8.75003L825.546 8.92685C825.121 9.02319 824.678 8.86616 824.446 8.54679L824.344 8.41217C824.103 8.09676 824.123 7.68633 824.406 7.39731L824.919 6.87468C825.271 6.51703 825.217 5.98387 824.797 5.68429L823.509 4.76181C823.09 4.46091 822.464 4.5071 822.113 4.86607L821.601 5.38606C821.32 5.67244 820.853 5.76479 820.453 5.6183C820.155 5.50877 819.85 5.41376 819.536 5.33325C819.117 5.22504 818.831 4.89908 818.831 4.52692V3.84593C818.831 3.37875 818.388 3 817.841 3H816.16C815.613 3 815.169 3.37875 815.169 3.84593V4.52428C815.169 4.90172 814.874 5.22636 814.452 5.3359L814.271 5.38342C813.852 5.50088 813.395 5.37812 813.141 5.06931L812.685 4.51371C812.371 4.13231 811.755 4.03861 811.306 4.30651L809.929 5.13001C809.481 5.39791 809.373 5.92583 809.686 6.30722L810.144 6.86546C810.397 7.17428 810.374 7.5847 810.102 7.88164L809.988 8.00701C809.723 8.3079 809.264 8.43328 808.852 8.30395L808.1 8.07167C807.587 7.91067 807.018 8.13767 806.831 8.57714L806.256 9.92456C806.069 10.364 806.335 10.8497 806.85 11.0094L807.596 11.2416C808.014 11.371 808.27 11.7194 808.244 12.0968C808.236 12.2301 808.232 12.3647 808.232 12.5007C808.232 12.6287 808.235 12.7567 808.243 12.8847L806.735 13.2305C806.207 13.3506 805.893 13.8151 806.034 14.2651L806.47 15.6521C806.61 16.1035 807.154 16.3714 807.683 16.25L808.453 16.0745C808.878 15.9768 809.322 16.1338 809.557 16.4532L809.655 16.5878C809.897 16.9032 809.878 17.3137 809.594 17.6027L809.082 18.124C808.731 18.4829 808.785 19.0161 809.204 19.317L810.492 20.2382C810.911 20.5391 811.535 20.4929 811.888 20.1339L812.401 19.6126C812.681 19.3276 813.146 19.2352 813.548 19.3817C813.845 19.4912 814.151 19.5862 814.464 19.6667C814.882 19.775 815.169 20.1009 815.169 20.4744V21.1541C815.169 21.6213 815.613 22 816.16 22H817.841C818.388 22 818.831 21.6213 818.831 21.1541V20.4757C818.831 20.0983 819.125 19.7736 819.549 19.6641L819.728 19.6166C820.147 19.4991 820.606 19.6219 820.858 19.9307L821.314 20.485C821.628 20.8677 822.246 20.9614 822.694 20.6935L824.07 19.8713C824.518 19.6021 824.628 19.0742 824.314 18.6915L823.857 18.1345C823.605 17.8257 823.625 17.4153 823.899 17.1197L824.011 16.9917C824.277 16.6921 824.735 16.568 825.151 16.6961L825.899 16.9283C826.414 17.0893 826.982 16.8623 827.17 16.4229L827.743 15.0754C827.93 14.636 827.667 14.1503 827.153 13.9906Z" fill="#68F0EB"/>
<path d="M811.643 14.1539L732.863 12.5644L718.467 34.2636L719.769 34.9368L733.717 13.9154L811.609 15.4871L811.643 14.1539Z" fill="#68F0EB"/>
<path d="M503.665 37.0619L719.126 35.2673L719.112 33.9341L503.65 35.7286" fill="#68F0EB"/>
<path d="M30.4396 14.1539L110.219 12.5644L124.798 34.2636L123.479 34.9368L109.354 13.9154L30.4732 15.4871L30.4396 14.1539Z" fill="#68F0EB"/>
<path d="M342.327 37.0619L124.131 35.2673L124.145 33.9341L342.341 35.7286" fill="#68F0EB"/>
</svg>
