<svg width="14" height="14" viewBox="0 0 14 14" fill="none" xmlns="http://www.w3.org/2000/svg">
<path fill-rule="evenodd" clip-rule="evenodd" d="M5.25557 0C4.97943 0 4.75557 0.223857 4.75557 0.5V3.11548L2.49251 1.80863C2.25338 1.67054 1.94761 1.75247 1.80956 1.99163L0.0674076 5.00976C-0.0706419 5.24892 0.011303 5.55475 0.250437 5.69284L2.51349 6.99969L0.250328 8.3066C0.011194 8.44469 -0.0707512 8.75052 0.0672983 8.98968L1.80945 12.0078C1.9475 12.247 2.25327 12.3289 2.49241 12.1908L4.75557 10.8839V13.5C4.75557 13.7761 4.97942 14 5.25557 14H8.73972C9.01587 14 9.23972 13.7761 9.23972 13.5V10.8839L11.5063 12.1928C11.7454 12.3309 12.0512 12.2489 12.1892 12.0098L13.9314 8.99163C14.0694 8.75247 13.9875 8.44665 13.7484 8.30855L11.4818 6.99969L13.7482 5.69088C13.9874 5.55279 14.0693 5.24697 13.9313 5.00781L12.1891 1.98968C12.0511 1.75052 11.7453 1.66859 11.5062 1.80668L9.23972 3.11549V0.5C9.23972 0.223858 9.01587 0 8.73972 0H5.25557ZM6.99907 8.87256C8.03318 8.87256 8.87149 8.03408 8.87149 6.99976C8.87149 5.96544 8.03318 5.12695 6.99907 5.12695C5.96497 5.12695 5.12666 5.96544 5.12666 6.99976C5.12666 8.03408 5.96497 8.87256 6.99907 8.87256Z" fill="#68F0EB"/>
</svg>
