<svg width="241" height="46" viewBox="0 0 241 46" fill="none" xmlns="http://www.w3.org/2000/svg">
<rect width="241" height="46" rx="4" fill="url(#paint0_linear_4_663)"/>
<path d="M67.212 10.824H90.984V14.016H67.212V10.824ZM66.288 20.876H91.796V24.096H66.288V20.876ZM82.5 12.672H86.028V35.548H82.5V12.672ZM72.616 12.7H76.088V20.064C76.088 21.408 76.0133 22.7893 75.864 24.208C75.7147 25.608 75.3973 26.9893 74.912 28.352C74.4453 29.7147 73.7267 31.0213 72.756 32.272C71.804 33.504 70.5253 34.624 68.92 35.632C68.7147 35.3707 68.4533 35.0813 68.136 34.764C67.8187 34.4467 67.4827 34.1387 67.128 33.84C66.792 33.5413 66.484 33.2987 66.204 33.112C67.6413 32.2533 68.7893 31.3013 69.648 30.256C70.5067 29.192 71.1507 28.1 71.58 26.98C72.0093 25.8413 72.2893 24.684 72.42 23.508C72.5507 22.332 72.616 21.1747 72.616 20.036V12.7ZM108.372 31.376H117.304V34.428H108.372V31.376ZM106.692 23.76H119.096V35.408H115.764V26.812H109.856V35.52H106.692V23.76ZM104.872 18.468C105.992 18.412 107.271 18.3467 108.708 18.272C110.164 18.1973 111.685 18.1133 113.272 18.02C114.877 17.9267 116.464 17.824 118.032 17.712L118.004 20.736C116.511 20.848 114.999 20.9693 113.468 21.1C111.956 21.212 110.491 21.3147 109.072 21.408C107.672 21.5013 106.384 21.5947 105.208 21.688L104.872 18.468ZM113.692 14.94L116.38 13.596C116.959 14.3613 117.528 15.2013 118.088 16.116C118.667 17.0307 119.18 17.9267 119.628 18.804C120.095 19.6813 120.44 20.484 120.664 21.212L117.752 22.752C117.565 22.0427 117.257 21.24 116.828 20.344C116.399 19.4293 115.913 18.5053 115.372 17.572C114.849 16.62 114.289 15.7427 113.692 14.94ZM109.744 9.172L113.496 9.872C113.104 11.0667 112.684 12.2893 112.236 13.54C111.788 14.7907 111.331 15.9947 110.864 17.152C110.416 18.2907 109.977 19.2987 109.548 20.176L106.748 19.476C107.028 18.7667 107.308 17.992 107.588 17.152C107.887 16.2933 108.167 15.4067 108.428 14.492C108.708 13.5587 108.96 12.644 109.184 11.748C109.408 10.8333 109.595 9.97467 109.744 9.172ZM94.092 14.8H103.136V17.908H94.092V14.8ZM97.872 9.172L101.008 9.536C100.709 11.0107 100.383 12.5693 100.028 14.212C99.692 15.8547 99.328 17.4973 98.936 19.14C98.5627 20.7827 98.1893 22.3693 97.816 23.9C97.4427 25.412 97.0787 26.7933 96.724 28.044L94.008 26.588C94.3253 25.4867 94.652 24.2267 94.988 22.808C95.3427 21.3893 95.688 19.896 96.024 18.328C96.3787 16.7413 96.7147 15.1733 97.032 13.624C97.3493 12.056 97.6293 10.572 97.872 9.172ZM95.66 26.14L97.508 23.788C98.4787 24.404 99.496 25.0947 100.56 25.86C101.624 26.6253 102.623 27.4 103.556 28.184C104.489 28.968 105.217 29.7147 105.74 30.424L103.724 33.14C103.201 32.4307 102.492 31.656 101.596 30.816C100.719 29.976 99.7573 29.1453 98.712 28.324C97.6667 27.5027 96.6493 26.7747 95.66 26.14ZM101.932 14.8H102.492L103.052 14.716L105.068 15.052C104.863 18.692 104.405 21.8373 103.696 24.488C103.005 27.1387 102.044 29.3693 100.812 31.18C99.58 32.9907 98.0307 34.4747 96.164 35.632C95.9213 35.2213 95.604 34.7453 95.212 34.204C94.8387 33.6813 94.4747 33.2613 94.12 32.944C95.7067 32.104 97.0507 30.872 98.152 29.248C99.2533 27.624 100.112 25.6547 100.728 23.34C101.344 21.0067 101.745 18.3653 101.932 15.416V14.8ZM131.444 11.132H147.572V13.876H131.444V11.132ZM130.94 26.868H147.684V29.64H130.94V26.868ZM134.72 9.2H137.912V15.472H134.72V9.2ZM141.16 9.2H144.408V15.472H141.16V9.2ZM135.336 21.688V22.92H143.036V21.688H135.336ZM135.336 18.3V19.504H143.036V18.3H135.336ZM132.228 15.948H146.284V25.244H132.228V15.948ZM137.632 24.936H140.908C140.796 26.2613 140.591 27.4747 140.292 28.576C139.993 29.6773 139.517 30.676 138.864 31.572C138.211 32.4493 137.305 33.2147 136.148 33.868C134.991 34.5213 133.469 35.072 131.584 35.52C131.453 35.1093 131.211 34.6333 130.856 34.092C130.52 33.5693 130.193 33.1493 129.876 32.832C131.519 32.496 132.825 32.0947 133.796 31.628C134.785 31.1613 135.541 30.6013 136.064 29.948C136.587 29.276 136.951 28.5293 137.156 27.708C137.38 26.868 137.539 25.944 137.632 24.936ZM141.692 27.848C142.215 29.0613 143.045 30.088 144.184 30.928C145.323 31.768 146.741 32.356 148.44 32.692C148.197 32.916 147.945 33.1867 147.684 33.504C147.423 33.8213 147.171 34.148 146.928 34.484C146.704 34.8387 146.517 35.1653 146.368 35.464C144.445 34.9227 142.877 34.0547 141.664 32.86C140.451 31.6653 139.517 30.1813 138.864 28.408L141.692 27.848ZM122.176 14.436H130.94V17.544H122.176V14.436ZM125.228 9.2H128.392V35.492H125.228V9.2ZM125.564 16.732L127.356 17.46C127.169 18.6173 126.927 19.8027 126.628 21.016C126.348 22.2293 126.021 23.424 125.648 24.6C125.293 25.7573 124.901 26.84 124.472 27.848C124.043 28.856 123.595 29.724 123.128 30.452C123.016 30.1347 122.867 29.7707 122.68 29.36C122.512 28.9493 122.325 28.5387 122.12 28.128C121.915 27.7173 121.709 27.3627 121.504 27.064C121.952 26.4667 122.381 25.7667 122.792 24.964C123.221 24.1427 123.613 23.2653 123.968 22.332C124.323 21.3987 124.631 20.456 124.892 19.504C125.153 18.5333 125.377 17.6093 125.564 16.732ZM128.224 18.3C128.392 18.5053 128.644 18.86 128.98 19.364C129.335 19.8493 129.699 20.3813 130.072 20.96C130.464 21.5387 130.819 22.08 131.136 22.584C131.472 23.0693 131.696 23.424 131.808 23.648L129.82 26C129.652 25.5707 129.437 25.0667 129.176 24.488C128.915 23.8907 128.635 23.284 128.336 22.668C128.037 22.0333 127.739 21.4453 127.44 20.904C127.141 20.344 126.889 19.8867 126.684 19.532L128.224 18.3ZM149.588 23.424C150.689 23.1813 152.005 22.864 153.536 22.472C155.085 22.0613 156.635 21.632 158.184 21.184L158.632 24.208C157.213 24.6373 155.776 25.0667 154.32 25.496C152.883 25.9067 151.548 26.2893 150.316 26.644L149.588 23.424ZM150.036 14.52H158.296V17.6H150.036V14.52ZM152.976 9.228H156.028V31.88C156.028 32.6267 155.944 33.224 155.776 33.672C155.627 34.1387 155.337 34.5027 154.908 34.764C154.497 35.0253 153.975 35.1933 153.34 35.268C152.724 35.3613 151.959 35.408 151.044 35.408C151.007 34.9787 150.904 34.4653 150.736 33.868C150.568 33.2707 150.381 32.7573 150.176 32.328C150.699 32.3467 151.175 32.356 151.604 32.356C152.052 32.356 152.36 32.3467 152.528 32.328C152.696 32.328 152.808 32.3 152.864 32.244C152.939 32.1693 152.976 32.0387 152.976 31.852V9.228ZM169.916 24.684L172.8 23.48C173.341 24.5253 173.873 25.6453 174.396 26.84C174.919 28.0347 175.385 29.2107 175.796 30.368C176.225 31.5067 176.543 32.5053 176.748 33.364L173.584 34.82C173.416 33.9427 173.136 32.9253 172.744 31.768C172.371 30.592 171.932 29.388 171.428 28.156C170.924 26.9053 170.42 25.748 169.916 24.684ZM163.364 12.952L166.108 11.832C166.575 12.7093 167.032 13.652 167.48 14.66C167.947 15.6493 168.367 16.62 168.74 17.572C169.113 18.524 169.384 19.364 169.552 20.092L166.556 21.408C166.425 20.68 166.192 19.8307 165.856 18.86C165.52 17.8707 165.128 16.8627 164.68 15.836C164.251 14.8093 163.812 13.848 163.364 12.952ZM171.12 9.928L174.452 9.984C174.359 12.952 174.181 15.7053 173.92 18.244C173.677 20.7827 173.285 23.116 172.744 25.244C172.221 27.3533 171.493 29.2667 170.56 30.984C169.627 32.6827 168.432 34.1667 166.976 35.436C166.808 35.2307 166.556 34.9693 166.22 34.652C165.884 34.3347 165.529 34.0173 165.156 33.7C164.801 33.4013 164.493 33.168 164.232 33C165.632 31.9173 166.771 30.62 167.648 29.108C168.525 27.5773 169.207 25.8413 169.692 23.9C170.196 21.94 170.551 19.7933 170.756 17.46C170.961 15.1267 171.083 12.616 171.12 9.928ZM160.256 33.588L159.472 30.284L160.2 29.192L166.892 24.46C167.06 24.8893 167.265 25.3653 167.508 25.888C167.751 26.4107 167.965 26.8307 168.152 27.148C166.584 28.3053 165.305 29.2667 164.316 30.032C163.345 30.7787 162.589 31.376 162.048 31.824C161.507 32.2533 161.105 32.608 160.844 32.888C160.601 33.1493 160.405 33.3827 160.256 33.588ZM160.228 33.588C160.135 33.3453 159.985 33.0653 159.78 32.748C159.593 32.4307 159.388 32.132 159.164 31.852C158.94 31.5533 158.735 31.3293 158.548 31.18C158.753 30.9933 158.959 30.7693 159.164 30.508C159.388 30.228 159.575 29.892 159.724 29.5C159.873 29.108 159.948 28.66 159.948 28.156V10.432H163.224V30.032C163.224 30.032 163.121 30.116 162.916 30.284C162.711 30.4333 162.459 30.648 162.16 30.928C161.88 31.208 161.591 31.5067 161.292 31.824C160.993 32.1413 160.741 32.4493 160.536 32.748C160.331 33.0467 160.228 33.3267 160.228 33.588Z" fill="#55F0BD"/>
<defs>
<linearGradient id="paint0_linear_4_663" x1="0" y1="0" x2="23.5703" y2="98.1922" gradientUnits="userSpaceOnUse">
<stop offset="0.36" stop-color="#3C4CFF"/>
<stop offset="0.683389" stop-color="#7F25FB"/>
</linearGradient>
</defs>
</svg>
