<svg width="681" height="50" viewBox="0 0 681 50" fill="none" xmlns="http://www.w3.org/2000/svg">
<path d="M8.99967 16.9458C6.11855 16.9458 3.78131 14.5083 3.78131 11.5007C3.78131 8.4917 6.11855 6.05417 8.99967 6.05417C11.882 6.05417 14.2193 8.4917 14.2193 11.5007C14.2193 14.5083 11.882 16.9458 8.99967 16.9458ZM17.3066 12.9906L16.6945 12.7584C16.3543 12.629 16.1443 12.2806 16.1633 11.9032C16.1709 11.7699 16.1746 11.6353 16.1746 11.5007C16.1746 11.3713 16.1709 11.2433 16.1646 11.1153L17.3989 10.7695C17.8327 10.6494 18.0883 10.1849 17.9719 9.73486L17.6165 8.34783C17.5014 7.89781 17.0562 7.62861 16.6224 7.75003L15.9925 7.92685C15.6447 8.02319 15.2818 7.86616 15.092 7.54679L15.0086 7.41217C14.8113 7.09676 14.8277 6.68633 15.0591 6.39731L15.479 5.87468C15.7674 5.51703 15.7232 4.98387 15.3792 4.68429L14.3256 3.76181C13.9829 3.46091 13.4706 3.5071 13.1835 3.86607L12.7648 4.38606C12.5347 4.67244 12.1527 4.76479 11.8252 4.6183C11.5811 4.50877 11.3319 4.41376 11.0752 4.33325C10.7324 4.22504 10.4984 3.89908 10.4984 3.52692V2.84593C10.4984 2.37875 10.1355 2 9.68775 2H8.31294C7.86522 2 7.50221 2.37875 7.50221 2.84593V3.52428C7.50221 3.90172 7.26063 4.22636 6.91535 4.3359L6.76738 4.38342C6.42464 4.50088 6.05026 4.37812 5.84284 4.06931L5.46977 3.51371C5.21303 3.13231 4.7084 3.03861 4.34162 3.30651L3.2147 4.13001C2.84792 4.39791 2.75941 4.92583 3.01616 5.30722L3.39052 5.86546C3.59794 6.17428 3.57897 6.5847 3.35637 6.88164L3.26275 7.00701C3.04648 7.3079 2.67083 7.43328 2.33314 7.30395L1.71849 7.07167C1.29859 6.91067 0.833162 7.13767 0.680127 7.57714L0.20961 8.92456C0.0565748 9.36403 0.274155 9.84968 0.695319 10.0094L1.30621 10.2416C1.64769 10.371 1.85763 10.7194 1.83613 11.0968C1.82981 11.2301 1.826 11.3647 1.826 11.5007C1.826 11.6287 1.82851 11.7567 1.83483 11.8847L0.601697 12.2305C0.16915 12.3506 -0.0876001 12.8151 0.0274928 13.2651L0.384194 14.6521C0.499286 15.1035 0.944431 15.3714 1.37698 15.25L2.00689 15.0745C2.35469 14.9768 2.71763 15.1338 2.90988 15.4532L2.99084 15.5878C3.18814 15.9032 3.17298 16.3137 2.94026 16.6027L2.52162 17.124C2.23452 17.4829 2.27879 18.0161 2.62154 18.317L3.67509 19.2382C4.01784 19.5391 4.52878 19.4929 4.81714 19.1339L5.23702 18.6126C5.46594 18.3276 5.84668 18.2352 6.17552 18.3817C6.41835 18.4912 6.66873 18.5862 6.92548 18.6667C7.26696 18.775 7.50221 19.1009 7.50221 19.4744V20.1541C7.50221 20.6213 7.86522 21 8.31294 21H9.68775C10.1355 21 10.4984 20.6213 10.4984 20.1541V19.4757C10.4984 19.0983 10.7387 18.7736 11.0853 18.6641L11.232 18.6166C11.5748 18.4991 11.9504 18.6219 12.1566 18.9307L12.5296 19.485C12.7864 19.8677 13.2923 19.9614 13.6591 19.6935L14.7847 18.8713C15.1515 18.6021 15.2413 18.0742 14.9845 17.6915L14.6102 17.1345C14.404 16.8257 14.4205 16.4153 14.6443 16.1197L14.7366 15.9917C14.9542 15.6921 15.3285 15.568 15.6687 15.6961L16.2809 15.9283C16.7021 16.0893 17.1675 15.8623 17.3205 15.4229L17.7897 14.0754C17.9428 13.636 17.7278 13.1503 17.3066 12.9906Z" fill="#68F0EB"/>
<path d="M671.5 14.9458C668.458 14.9458 665.991 12.5083 665.991 9.50066C665.991 6.4917 668.458 4.05417 671.5 4.05417C674.542 4.05417 677.009 6.4917 677.009 9.50066C677.009 12.5083 674.542 14.9458 671.5 14.9458ZM680.268 10.9906L679.622 10.7584C679.263 10.629 679.041 10.2806 679.061 9.90318C679.069 9.76989 679.073 9.63527 679.073 9.50066C679.073 9.37133 679.069 9.24333 679.063 9.11531L680.366 8.76953C680.823 8.64944 681.093 8.18488 680.97 7.73486L680.595 6.34783C680.474 5.89781 680.004 5.62861 679.546 5.75003L678.881 5.92685C678.514 6.02319 678.131 5.86616 677.93 5.54679L677.842 5.41217C677.634 5.09676 677.651 4.68633 677.896 4.39731L678.339 3.87468C678.643 3.51703 678.597 2.98387 678.234 2.68429L677.121 1.76181C676.76 1.46091 676.219 1.5071 675.916 1.86607L675.474 2.38606C675.231 2.67244 674.828 2.76479 674.482 2.6183C674.224 2.50877 673.961 2.41376 673.69 2.33325C673.329 2.22504 673.082 1.89908 673.082 1.52692V0.845928C673.082 0.378748 672.699 0 672.226 0H670.775C670.302 0 669.919 0.378748 669.919 0.845928V1.52428C669.919 1.90172 669.664 2.22636 669.3 2.3359L669.143 2.38342C668.782 2.50088 668.386 2.37812 668.167 2.06931L667.774 1.51371C667.503 1.13231 666.97 1.03861 666.583 1.30651L665.393 2.13001C665.006 2.39791 664.913 2.92583 665.184 3.30722L665.579 3.86546C665.798 4.17428 665.778 4.5847 665.543 4.88164L665.444 5.00701C665.216 5.3079 664.819 5.43328 664.463 5.30395L663.814 5.07167C663.371 4.91067 662.879 5.13767 662.718 5.57714L662.221 6.92456C662.06 7.36403 662.289 7.84968 662.734 8.00937L663.379 8.24164C663.739 8.37097 663.961 8.71938 663.938 9.09682C663.931 9.23011 663.927 9.36473 663.927 9.50066C663.927 9.62867 663.93 9.75667 663.937 9.88469L662.635 10.2305C662.179 10.3506 661.908 10.8151 662.029 11.2651L662.406 12.6521C662.527 13.1035 662.997 13.3714 663.453 13.25L664.118 13.0745C664.486 12.9768 664.869 13.1338 665.072 13.4532L665.157 13.5878C665.365 13.9032 665.349 14.3137 665.104 14.6027L664.662 15.124C664.359 15.4829 664.405 16.0161 664.767 16.317L665.879 17.2382C666.241 17.5391 666.78 17.4929 667.085 17.1339L667.528 16.6126C667.77 16.3276 668.171 16.2352 668.519 16.3817C668.775 16.4912 669.039 16.5862 669.31 16.6667C669.671 16.775 669.919 17.1009 669.919 17.4744V18.1541C669.919 18.6213 670.302 19 670.775 19H672.226C672.699 19 673.082 18.6213 673.082 18.1541V17.4757C673.082 17.0983 673.335 16.7736 673.701 16.6641L673.856 16.6166C674.218 16.4991 674.614 16.6219 674.832 16.9307L675.226 17.485C675.497 17.8677 676.031 17.9614 676.418 17.6935L677.606 16.8713C677.993 16.6021 678.088 16.0742 677.817 15.6915L677.422 15.1345C677.204 14.8257 677.222 14.4153 677.458 14.1197L677.555 13.9917C677.785 13.6921 678.18 13.568 678.539 13.6961L679.185 13.9283C679.63 14.0893 680.121 13.8623 680.283 13.4229L680.778 12.0754C680.94 11.636 680.713 11.1503 680.268 10.9906Z" fill="#68F0EB"/>
<path d="M292.1 31.52H304.43V33.77H292.1V31.52ZM279.53 45.71H306.5V47.96H279.53V45.71ZM290.81 22.25H293.18V46.91H290.81V22.25ZM315.98 21.92L318.11 22.55C317.45 24.25 316.68 25.93 315.8 27.59C314.92 29.23 313.97 30.78 312.95 32.24C311.93 33.7 310.88 34.99 309.8 36.11C309.72 35.93 309.61 35.7 309.47 35.42C309.33 35.14 309.17 34.86 308.99 34.58C308.83 34.28 308.68 34.05 308.54 33.89C309.52 32.91 310.47 31.78 311.39 30.5C312.31 29.22 313.16 27.85 313.94 26.39C314.74 24.91 315.42 23.42 315.98 21.92ZM312.8 29.63L314.93 27.47L314.96 27.5V49.34H312.8V29.63ZM322.22 36.65H333.35V38.75H322.22V36.65ZM332.6 36.65H333.02L333.38 36.5L334.97 37.49C334.27 38.31 333.48 39.22 332.6 40.22C331.72 41.22 330.81 42.23 329.87 43.25C328.95 44.25 328.06 45.22 327.2 46.16L325.34 45.02C326.2 44.12 327.09 43.17 328.01 42.17C328.93 41.17 329.79 40.21 330.59 39.29C331.41 38.35 332.08 37.56 332.6 36.92V36.65ZM325.19 21.95L327.41 22.25C327.07 23.59 326.7 25.01 326.3 26.51C325.9 27.99 325.49 29.48 325.07 30.98C324.65 32.48 324.24 33.9 323.84 35.24C323.44 36.58 323.07 37.75 322.73 38.75H320.33C320.71 37.69 321.12 36.47 321.56 35.09C322 33.71 322.43 32.26 322.85 30.74C323.29 29.22 323.71 27.71 324.11 26.21C324.51 24.69 324.87 23.27 325.19 21.95ZM318.44 25.28H335.24V27.38H318.44V25.28ZM316.73 30.95H336.62V33.08H316.73V30.95ZM322.04 43.25L323.69 41.87C324.65 42.45 325.63 43.09 326.63 43.79C327.65 44.49 328.59 45.18 329.45 45.86C330.33 46.54 331.05 47.16 331.61 47.72L329.93 49.4C329.39 48.82 328.68 48.16 327.8 47.42C326.92 46.7 325.98 45.97 324.98 45.23C323.98 44.49 323 43.83 322.04 43.25ZM339.17 37.82H353.93V39.68H339.17V37.82ZM339.35 27.32H353.81V29.18H339.35V27.32ZM344.75 35.21L346.88 35.69C346.42 36.65 345.91 37.68 345.35 38.78C344.81 39.86 344.27 40.91 343.73 41.93C343.21 42.93 342.72 43.83 342.26 44.63L340.28 43.94C340.72 43.18 341.21 42.3 341.75 41.3C342.29 40.3 342.82 39.27 343.34 38.21C343.88 37.13 344.35 36.13 344.75 35.21ZM349.25 38.93L351.35 39.2C351.11 40.66 350.71 41.95 350.15 43.07C349.61 44.17 348.89 45.13 347.99 45.95C347.11 46.75 346.03 47.43 344.75 47.99C343.49 48.55 341.99 49.02 340.25 49.4C340.17 49.1 340.03 48.77 339.83 48.41C339.65 48.05 339.46 47.75 339.26 47.51C341.36 47.15 343.09 46.63 344.45 45.95C345.81 45.25 346.87 44.33 347.63 43.19C348.41 42.03 348.95 40.61 349.25 38.93ZM351.14 22.37L353.09 23.21C352.65 23.91 352.19 24.61 351.71 25.31C351.25 26.01 350.81 26.61 350.39 27.11L348.86 26.36C349.24 25.84 349.65 25.2 350.09 24.44C350.53 23.66 350.88 22.97 351.14 22.37ZM345.56 21.77H347.66V35.57H345.56V21.77ZM340.49 23.21L342.17 22.52C342.61 23.12 343.01 23.78 343.37 24.5C343.75 25.22 344.01 25.85 344.15 26.39L342.35 27.17C342.23 26.65 341.99 26.02 341.63 25.28C341.27 24.52 340.89 23.83 340.49 23.21ZM345.62 28.16L347.12 29.03C346.64 29.87 346.02 30.71 345.26 31.55C344.52 32.39 343.71 33.17 342.83 33.89C341.97 34.59 341.11 35.18 340.25 35.66C340.13 35.4 339.95 35.1 339.71 34.76C339.47 34.42 339.24 34.15 339.02 33.95C339.86 33.57 340.7 33.08 341.54 32.48C342.38 31.88 343.16 31.2 343.88 30.44C344.6 29.68 345.18 28.92 345.62 28.16ZM347.42 29.18C347.68 29.32 348.07 29.55 348.59 29.87C349.13 30.19 349.7 30.54 350.3 30.92C350.9 31.3 351.45 31.65 351.95 31.97C352.45 32.29 352.81 32.54 353.03 32.72L351.77 34.34C351.51 34.1 351.14 33.79 350.66 33.41C350.18 33.03 349.66 32.63 349.1 32.21C348.56 31.79 348.04 31.39 347.54 31.01C347.04 30.63 346.63 30.34 346.31 30.14L347.42 29.18ZM356.12 27.32H366.8V29.42H356.12V27.32ZM356.87 21.77L359.12 22.1C358.8 24.06 358.38 25.95 357.86 27.77C357.36 29.57 356.77 31.25 356.09 32.81C355.41 34.35 354.63 35.7 353.75 36.86C353.63 36.72 353.46 36.56 353.24 36.38C353.02 36.18 352.78 35.99 352.52 35.81C352.28 35.61 352.08 35.45 351.92 35.33C352.76 34.27 353.5 33.03 354.14 31.61C354.78 30.17 355.32 28.62 355.76 26.96C356.22 25.28 356.59 23.55 356.87 21.77ZM362.75 28.52L365.06 28.76C364.58 32.22 363.86 35.26 362.9 37.88C361.96 40.5 360.68 42.76 359.06 44.66C357.46 46.56 355.4 48.17 352.88 49.49C352.8 49.29 352.68 49.06 352.52 48.8C352.36 48.56 352.19 48.31 352.01 48.05C351.85 47.81 351.69 47.61 351.53 47.45C353.91 46.33 355.85 44.91 357.35 43.19C358.85 41.45 360.02 39.37 360.86 36.95C361.72 34.51 362.35 31.7 362.75 28.52ZM357.32 29.18C357.76 31.94 358.38 34.53 359.18 36.95C360 39.35 361.06 41.46 362.36 43.28C363.66 45.08 365.24 46.47 367.1 47.45C366.92 47.61 366.72 47.8 366.5 48.02C366.3 48.24 366.11 48.47 365.93 48.71C365.75 48.95 365.6 49.18 365.48 49.4C363.54 48.24 361.9 46.69 360.56 44.75C359.22 42.79 358.13 40.52 357.29 37.94C356.45 35.36 355.78 32.55 355.28 29.51L357.32 29.18ZM342.08 43.55L343.25 42.02C344.45 42.46 345.64 42.97 346.82 43.55C348 44.11 349.1 44.69 350.12 45.29C351.14 45.89 352.01 46.47 352.73 47.03L351.17 48.65C350.49 48.07 349.66 47.48 348.68 46.88C347.7 46.28 346.64 45.69 345.5 45.11C344.38 44.53 343.24 44.01 342.08 43.55ZM380.93 23.12H395.69V30.89H380.96V28.91H393.53V25.07H380.93V23.12ZM379.85 23.12H382.04V32.18C382.04 33.44 382 34.82 381.92 36.32C381.84 37.8 381.67 39.32 381.41 40.88C381.15 42.42 380.77 43.92 380.27 45.38C379.79 46.84 379.14 48.17 378.32 49.37C378.18 49.25 378 49.1 377.78 48.92C377.56 48.76 377.32 48.6 377.06 48.44C376.82 48.3 376.62 48.19 376.46 48.11C377.24 46.95 377.85 45.7 378.29 44.36C378.75 43.02 379.09 41.64 379.31 40.22C379.55 38.78 379.7 37.38 379.76 36.02C379.82 34.64 379.85 33.36 379.85 32.18V23.12ZM381.05 34.19H396.74V36.14H381.05V34.19ZM383.48 46.34H394.58V48.2H383.48V46.34ZM387.89 30.65H390.02V40.73H387.89V30.65ZM382.52 39.86H395.81V49.31H393.74V41.78H384.5V49.43H382.52V39.86ZM368.87 37.73C370.05 37.41 371.48 37 373.16 36.5C374.84 35.98 376.53 35.45 378.23 34.91L378.56 36.98C376.98 37.5 375.39 38.02 373.79 38.54C372.21 39.06 370.77 39.53 369.47 39.95L368.87 37.73ZM369.26 27.86H378.5V29.96H369.26V27.86ZM373.01 21.83H375.11V46.58C375.11 47.2 375.03 47.67 374.87 47.99C374.73 48.33 374.47 48.59 374.09 48.77C373.73 48.95 373.25 49.07 372.65 49.13C372.05 49.19 371.27 49.21 370.31 49.19C370.29 48.93 370.21 48.59 370.07 48.17C369.95 47.77 369.82 47.42 369.68 47.12C370.32 47.14 370.9 47.15 371.42 47.15C371.96 47.15 372.32 47.14 372.5 47.12C372.68 47.12 372.81 47.08 372.89 47C372.97 46.94 373.01 46.8 373.01 46.58V21.83Z" fill="#68F0EB"/>
<path d="M667.11 11.1539L601.194 9.56435L589.149 31.2636L590.238 31.9368L601.909 10.9154L667.082 12.4871L667.11 11.1539Z" fill="#68F0EB"/>
<path d="M668.626 14.5556C667.194 15.4473 665.349 14.9442 664.505 13.4342C663.66 11.9241 664.135 9.97647 665.567 9.08483C666.998 8.19387 668.843 8.69695 669.688 10.207C670.532 11.7171 670.057 13.6647 668.626 14.5556Z" fill="#68F0EB"/>
<path d="M409.421 34.0619L589.7 32.2673L589.688 30.9341L409.409 32.7286" fill="#68F0EB"/>
<path d="M13.4692 11.1539L80.2213 9.56435L92.4195 31.2636L91.3163 31.9368L79.498 10.9154L13.4973 12.4871L13.4692 11.1539Z" fill="#68F0EB"/>
<path d="M11.9337 14.5556C13.3839 15.4473 15.2523 14.9442 16.1073 13.4342C16.9623 11.9241 16.4813 9.97647 15.0311 9.08483C13.582 8.19387 11.7136 8.69695 10.8586 10.207C10.0037 11.7171 10.4846 13.6647 11.9337 14.5556Z" fill="#68F0EB"/>
<path d="M274.429 34.0619L91.8615 32.2673L91.8736 30.9341L274.441 32.7286" fill="#68F0EB"/>
</svg>
