<svg width="244" height="186" viewBox="0 0 244 186" fill="none" xmlns="http://www.w3.org/2000/svg">
<rect width="244" height="186" rx="7" fill="#081028"/>
<path d="M86.37 28.24H87.42V33.014H86.37V28.24ZM83.318 33.49V35.996H90.64V33.49H83.318ZM82.324 32.496H91.69V36.976H82.324V32.496ZM86.86 29.724H92.74V30.718H86.86V29.724ZM84.76 38.208L85.754 38.124C85.8287 38.4133 85.8893 38.7307 85.936 39.076C85.992 39.412 86.034 39.734 86.062 40.042C86.0993 40.3593 86.118 40.63 86.118 40.854L85.054 40.994C85.054 40.7607 85.04 40.4853 85.012 40.168C84.9933 39.8507 84.9607 39.5193 84.914 39.174C84.8673 38.8287 84.816 38.5067 84.76 38.208ZM87.658 38.222L88.61 38.012C88.7593 38.292 88.8993 38.6 89.03 38.936C89.17 39.2627 89.296 39.58 89.408 39.888C89.5293 40.196 89.6133 40.4667 89.66 40.7L88.638 40.966C88.5913 40.7327 88.5167 40.4573 88.414 40.14C88.3113 39.8227 88.1947 39.496 88.064 39.16C87.9333 38.824 87.798 38.5113 87.658 38.222ZM90.514 38.11L91.452 37.746C91.6947 38.0447 91.9327 38.362 92.166 38.698C92.4087 39.034 92.6327 39.37 92.838 39.706C93.0433 40.0327 93.202 40.3267 93.314 40.588L92.32 41.008C92.2173 40.7467 92.068 40.448 91.872 40.112C91.676 39.776 91.4567 39.4353 91.214 39.09C90.9807 38.7353 90.7473 38.4087 90.514 38.11ZM82.478 37.83L83.472 38.096C83.248 38.6373 82.9633 39.1833 82.618 39.734C82.282 40.2847 81.9227 40.742 81.54 41.106L80.588 40.644C80.9613 40.3267 81.316 39.9113 81.652 39.398C81.988 38.8753 82.2633 38.3527 82.478 37.83ZM95.946 30.41H106.152V31.46H95.946V30.41ZM94.91 33.658H107.118V34.708H94.91V33.658ZM100.496 28.254H101.588V39.986H100.496V28.254ZM104.85 35.786H105.928V41.12H104.85V35.786ZM96.072 35.786H97.178V39.3H105.55V40.322H96.072V35.786ZM114.58 32.776H120.334V33.826H114.58V32.776ZM108.714 39.398H121.3V40.448H108.714V39.398ZM113.978 28.45H115.084V39.958H113.978V28.45ZM125.724 28.296L126.718 28.59C126.41 29.3833 126.051 30.1673 125.64 30.942C125.229 31.7073 124.786 32.4307 124.31 33.112C123.834 33.7933 123.344 34.3953 122.84 34.918C122.803 34.834 122.751 34.7267 122.686 34.596C122.621 34.4653 122.546 34.3347 122.462 34.204C122.387 34.064 122.317 33.9567 122.252 33.882C122.709 33.4247 123.153 32.8973 123.582 32.3C124.011 31.7027 124.408 31.0633 124.772 30.382C125.145 29.6913 125.463 28.996 125.724 28.296ZM124.24 31.894L125.234 30.886L125.248 30.9V41.092H124.24V31.894ZM128.636 35.17H133.83V36.15H128.636V35.17ZM133.48 35.17H133.676L133.844 35.1L134.586 35.562C134.259 35.9447 133.891 36.3693 133.48 36.836C133.069 37.3027 132.645 37.774 132.206 38.25C131.777 38.7167 131.361 39.1693 130.96 39.608L130.092 39.076C130.493 38.656 130.909 38.2127 131.338 37.746C131.767 37.2793 132.169 36.8313 132.542 36.402C132.925 35.9633 133.237 35.5947 133.48 35.296V35.17ZM130.022 28.31L131.058 28.45C130.899 29.0753 130.727 29.738 130.54 30.438C130.353 31.1287 130.162 31.824 129.966 32.524C129.77 33.224 129.579 33.8867 129.392 34.512C129.205 35.1373 129.033 35.6833 128.874 36.15H127.754C127.931 35.6553 128.123 35.086 128.328 34.442C128.533 33.798 128.734 33.1213 128.93 32.412C129.135 31.7027 129.331 30.998 129.518 30.298C129.705 29.5887 129.873 28.926 130.022 28.31ZM126.872 29.864H134.712V30.844H126.872V29.864ZM126.074 32.51H135.356V33.504H126.074V32.51ZM128.552 38.25L129.322 37.606C129.77 37.8767 130.227 38.1753 130.694 38.502C131.17 38.8287 131.609 39.1507 132.01 39.468C132.421 39.7853 132.757 40.0747 133.018 40.336L132.234 41.12C131.982 40.8493 131.651 40.5413 131.24 40.196C130.829 39.86 130.391 39.5193 129.924 39.174C129.457 38.8287 129 38.5207 128.552 38.25ZM146.15 31.138L147.256 31.474C146.668 33.182 145.912 34.6567 144.988 35.898C144.073 37.1393 142.972 38.1847 141.684 39.034C140.405 39.8833 138.917 40.5833 137.218 41.134C137.181 41.0407 137.12 40.9333 137.036 40.812C136.961 40.6907 136.877 40.5647 136.784 40.434C136.7 40.3033 136.621 40.2007 136.546 40.126C138.207 39.6407 139.659 39.006 140.9 38.222C142.141 37.4287 143.196 36.4533 144.064 35.296C144.932 34.1293 145.627 32.7433 146.15 31.138ZM139.78 31.222C140.293 32.7153 140.984 34.0593 141.852 35.254C142.729 36.4393 143.803 37.4427 145.072 38.264C146.341 39.0853 147.821 39.6967 149.51 40.098C149.426 40.1727 149.333 40.2707 149.23 40.392C149.137 40.5227 149.043 40.6533 148.95 40.784C148.866 40.9147 148.796 41.0267 148.74 41.12C147.013 40.672 145.506 40.0093 144.218 39.132C142.939 38.2453 141.852 37.1673 140.956 35.898C140.06 34.6193 139.323 33.1633 138.744 31.53L139.78 31.222ZM136.7 30.62H149.356V31.642H136.7V30.62ZM142.44 28.24H143.518V31.236H142.44V28.24ZM158.456 28.408H159.506V41.12H158.456V28.408ZM156.048 28.94L157.056 29.15C156.925 29.794 156.767 30.4333 156.58 31.068C156.403 31.6933 156.197 32.2767 155.964 32.818C155.74 33.3593 155.493 33.8447 155.222 34.274C155.157 34.218 155.068 34.1573 154.956 34.092C154.853 34.0267 154.741 33.9613 154.62 33.896C154.508 33.8307 154.41 33.7793 154.326 33.742C154.597 33.3593 154.839 32.9113 155.054 32.398C155.278 31.8753 155.474 31.32 155.642 30.732C155.81 30.144 155.945 29.5467 156.048 28.94ZM156.174 31.11H162.726V32.132H155.922L156.174 31.11ZM154.438 35.226H163.342V36.262H154.438V35.226ZM153.752 28.296L154.746 28.59C154.447 29.3833 154.102 30.1673 153.71 30.942C153.327 31.7073 152.907 32.4307 152.45 33.112C152.002 33.784 151.535 34.386 151.05 34.918C151.013 34.834 150.957 34.7267 150.882 34.596C150.817 34.4653 150.742 34.3347 150.658 34.204C150.583 34.064 150.513 33.9567 150.448 33.882C150.887 33.4247 151.307 32.8973 151.708 32.3C152.119 31.7027 152.497 31.0633 152.842 30.382C153.197 29.6913 153.5 28.996 153.752 28.296ZM152.338 31.894L153.332 30.9L153.346 30.914V41.092H152.338V31.894Z" fill="#68F0EB" fill-opacity="0.7"/>
<path d="M114.289 139.966H92V75.957H114.289" stroke="white" stroke-width="3" stroke-linecap="round" stroke-linejoin="round"/>
<path d="M147.722 79.513V136.054" stroke="white" stroke-width="3" stroke-linecap="round" stroke-linejoin="round"/>
<path fill-rule="evenodd" clip-rule="evenodd" d="M117.567 143.522C115.756 143.522 114.289 141.93 114.289 139.966C114.289 138.002 115.756 136.41 117.567 136.41C119.377 136.41 120.844 138.002 120.844 139.966C120.844 141.93 119.377 143.522 117.567 143.522Z" stroke="white" stroke-width="3"/>
<path fill-rule="evenodd" clip-rule="evenodd" d="M117.567 79.513C115.756 79.513 114.289 77.9209 114.289 75.9569C114.289 73.993 115.756 72.4009 117.567 72.4009C119.377 72.4009 120.844 73.993 120.844 75.9569C120.844 77.9209 119.377 79.513 117.567 79.513Z" stroke="white" stroke-width="3"/>
<path fill-rule="evenodd" clip-rule="evenodd" d="M147.722 79.513C145.912 79.513 144.444 77.9209 144.444 75.9569C144.444 73.993 145.912 72.4009 147.722 72.4009C149.532 72.4009 151 73.993 151 75.9569C151 77.9209 149.532 79.513 147.722 79.513Z" stroke="white" stroke-width="3"/>
<path fill-rule="evenodd" clip-rule="evenodd" d="M147.722 143.522C145.912 143.522 144.444 141.93 144.444 139.966C144.444 138.002 145.912 136.41 147.722 136.41C149.532 136.41 151 138.002 151 139.966C151 141.93 149.532 143.522 147.722 143.522Z" stroke="white" stroke-width="3"/>
<path d="M128.711 116.459V131.431H99.8667V84.4915H128.711V99.4637" stroke="#3873FF" stroke-width="4"/>
<path d="M98.5557 83.0691L120.845 91.8569V141.744L98.5557 132.956V83.0691Z" fill="url(#paint0_linear_52_1067)"/>
<rect width="3.13821" height="13.8846" transform="matrix(0 -1 -1 0 134.923 109.542)" fill="#3CE1CD"/>
<path d="M124.112 115.074L126.158 112.855L119.612 105.754L117.567 107.973L124.112 115.074Z" fill="#3CE1CD"/>
<path d="M124.112 100.849L126.158 103.068L119.612 110.169L117.567 107.95L124.112 100.849Z" fill="#3CE1CD"/>
<rect opacity="0.1" x="133.956" y="66" width="6.80529" height="7.38306" fill="#3CE1CD"/>
<rect opacity="0.4" x="133.956" y="75.598" width="6.80529" height="7.38306" fill="#3CE1CD"/>
<rect opacity="0.7" x="133.956" y="85.1959" width="6.80529" height="7.38306" fill="#3CE1CD"/>
<rect x="133.956" y="94.7939" width="6.80529" height="7.38306" fill="#3CE1CD"/>
<rect opacity="0.1" width="6.80529" height="7.38306" transform="matrix(1 0 0 -1 133.956 149.733)" fill="#3CE1CD"/>
<rect opacity="0.4" width="6.80529" height="7.38306" transform="matrix(1 0 0 -1 133.956 140.135)" fill="#3CE1CD"/>
<rect opacity="0.7" width="6.80529" height="7.38306" transform="matrix(1 0 0 -1 133.956 130.537)" fill="#3CE1CD"/>
<rect width="6.80529" height="7.38306" transform="matrix(1 0 0 -1 133.956 120.939)" fill="#3CE1CD"/>
<defs>
<linearGradient id="paint0_linear_52_1067" x1="109.7" y1="83.0691" x2="109.7" y2="141.744" gradientUnits="userSpaceOnUse">
<stop stop-color="#3873FF"/>
<stop offset="1" stop-color="#3873FF" stop-opacity="0"/>
</linearGradient>
</defs>
</svg>
