<svg width="14" height="14" viewBox="0 0 14 14" fill="none" xmlns="http://www.w3.org/2000/svg">
<path d="M6.57784 0.56139C6.76629 0.237838 7.23371 0.237837 7.42216 0.561389L9.41868 3.9892C9.48772 4.10772 9.60339 4.19177 9.73745 4.2208L13.6144 5.06035C13.9804 5.13959 14.1248 5.58414 13.8754 5.86335L11.2323 8.8214C11.1409 8.92368 11.0967 9.05967 11.1105 9.19614L11.5101 13.1428C11.5478 13.5153 11.1697 13.7901 10.827 13.6391L7.19701 12.0395C7.07149 11.9842 6.92851 11.9842 6.80299 12.0395L3.17296 13.6391C2.83032 13.7901 2.45216 13.5153 2.48988 13.1428L2.88948 9.19614C2.9033 9.05967 2.85911 8.92368 2.76772 8.8214L0.12464 5.86335C-0.124841 5.58414 0.0196004 5.13959 0.385551 5.06035L4.26255 4.2208C4.39661 4.19177 4.51228 4.10772 4.58132 3.9892L6.57784 0.56139Z" fill="#68F0EB"/>
</svg>
